<svg xmlns="http://www.w3.org/2000/svg" width="512" height="512" viewBox="0 0 512 512">
  <g fill-rule="evenodd" clip-rule="evenodd" fill="#333334">
    <path d="M256.542 512c-71.874-1.956-131.156-26.52-181.051-74.417-14.927-14.326-17.064-27.486-3.705-43.805 11.639-14.218 21.795-29.636 33.02-44.205 13.692-17.771 21.206-17.537 35.503.445 2.384 3 4.557 6.167 6.926 9.176 13.929 17.718 22.139 18.046 35.629.419 15.371-20.078 30.212-40.571 45.137-60.987 10.923-14.945 21.678-15.423 32.864-.319 21.433 28.948 43.685 57.33 64.208 86.908 14 20.173 31.299 30.298 56.101 28.538 15.256-1.079 30.655-.211 45.988-.13 6.181.036 13.042-.072 16.218 6.271 3.973 7.925-2.406 12.989-7.193 17.658-43.234 42.163-94.701 66.955-155.049 72.667-9.151.867-18.342 1.331-24.596 1.781z"/>
    <path d="M255.697 0c157.829-.306 278.484 141.521 252.859 297.667-1.521 9.284 0 22.525-11.152 25.881-12.349 3.715-15.851-9.693-21.41-17.218-17.794-24.063-34.75-48.738-52.493-72.836-15.927-21.625-31.699-21.672-47.738-.492-8.795 11.618-16.753 23.879-25.702 35.38-15.736 20.227-30.771 20.299-46.1-.72-31.199-42.772-61.666-86.082-92.472-129.144-20.904-29.223-34.425-29.102-55.754.679C115.967 194.72 76.422 250.402 36.46 305.781c-5.481 7.602-8.867 20.808-21.174 17.874-11.896-2.833-10.093-16.219-11.64-25.331C-22.763 142.664 97.705.306 255.697 0z"/>
  </g>
</svg>
