<svg xmlns="http://www.w3.org/2000/svg" width="174.704" height="48" viewBox="0 0 174.704 48">
  <path opacity=".05" d="M36.063 4.085c5.983 4.148 9.895 11.062 9.895 18.895 0 12.69-10.284 22.978-22.98 22.978-7.832 0-14.745-3.908-18.895-9.894a23.765 23.765 0 0 0 3.861 5.075 23.421 23.421 0 0 0 15.799 6.096c12.975 0 23.491-10.518 23.491-23.489 0-6.08-2.304-11.627-6.096-15.799a23.712 23.712 0 0 0-5.075-3.862zm5.076 3.861C45.074 12.147 47.49 17.789 47.49 24c0 12.974-10.517 23.489-23.491 23.489a23.401 23.401 0 0 1-16.055-6.351C12.194 45.371 18.038 48 24.51 48 37.483 48 48 37.482 48 24.511c0-6.47-2.63-12.317-6.861-16.565z"/>
  <path opacity=".1" d="M41.14 7.946a23.414 23.414 0 0 1 6.097 15.799c0 12.974-10.517 23.489-23.491 23.489a23.417 23.417 0 0 1-15.799-6.096 23.398 23.398 0 0 0 16.055 6.351c12.974 0 23.49-10.518 23.49-23.489A23.404 23.404 0 0 0 41.14 7.946z"/>
  <path opacity=".2" d="M30.896 1.403c8.799 3.222 15.064 11.66 15.064 21.58 0 12.691-10.285 22.979-22.979 22.979-9.915 0-18.354-6.266-21.571-15.064 4.008 12.339 17.26 19.093 29.598 15.085A23.486 23.486 0 0 0 47.242 23.75 23.488 23.488 0 0 0 30.9 1.409l-.004-.006z"/>
  <path fill="#333334" d="M23.491 0c12.974 0 23.49 10.517 23.49 23.489 0 12.974-10.517 23.49-23.49 23.49C10.517 46.979 0 36.463 0 23.489 0 10.517 10.517 0 23.491 0z"/>
  <path opacity=".1" d="M39.862 6.67a23.404 23.404 0 0 1 6.097 15.798c0 12.974-10.517 23.489-23.49 23.489a23.418 23.418 0 0 1-15.8-6.095c4.268 4.381 10.225 7.117 16.821 7.117 12.974 0 23.49-10.518 23.49-23.49 0-6.599-2.734-12.552-7.118-16.819z"/>
  <path fill-opacity=".1" d="M27.063 13.276l-.51.511v1.021l.51.511h1.532v1.021L17.362 26.553V15.319l-5.107 5.105v6.128l5.742 5.743 14.804-13.793-5.226-5.227h-.512zm-9.701 2.043h1.531l.511-.511v-1.021l-.255-.255-1.787 1.787zm9.084 10.213l-.725.51-.343 1.021.384.512h1.104l.724-.512.342-1.021-.381-.51h-1.105zm-2.649 3.064l-.308 1.021h.92l-1.941 5.106h3.064l.377-1.021h-.888l1.94-5.106h-3.164zm4.391 0l-.357 1.021h.766l-1.878 4.943 3.135-3.135.275-.786h.511l1.021-1.022h-.612l-.92-1.021h-1.941z"/>
  <path fill="#86C1D2" d="M9.702 12.255l-.512.511v1.021l.512.511h1.531v19.915l.511.51h1.532l22.469-20.936v-1.021l-.511-.511h-9.191l-.511.511v1.021l.511.511h1.532v1.021L16.341 25.532V14.298h1.531l.511-.511v-1.021l-.511-.511h-8.17zm15.724 12.256l-.725.511-.343 1.021.383.511h1.104l.724-.511.342-1.021-.381-.511m-3.755 3.064l-.308 1.021h.92l-1.941 5.106h3.064l.377-1.021H24l1.94-5.105m1.226-.001l-.357 1.021h.766l-1.94 5.106h2.604l.357-1.021h-.563l1.073-3.064h2.171l-1.457 4.086h2.555l.407-1.021h-.561l1.072-3.064h2.042l-1.43 4.086h2.677l.469-1.021h-.714l1.45-4.085-.817-1.021h-1.226l-1.021 1.021h-.868l-.869-1.021h-.97l-.97 1.021h-1.022l-.919-1.021"/>
  <path fill="none" d="M53 15.415h122.458v17.171H53z"/>
  <path fill="#86C1D2" d="M64.574 31.929a.988.988 0 0 1-.594.176c-.352 0-.704-.176-.924-.506l-7.195-10.342v9.77c0 .594-.484 1.078-1.078 1.078s-1.1-.484-1.1-1.078V17.802a1.128 1.128 0 0 1 .506-1.078 1.084 1.084 0 0 1 1.519.33l7.173 10.65V17.648c0-.616.506-1.1 1.1-1.1s1.078.484 1.078 1.1V30.85c.065.419-.111.837-.485 1.079zm1.715-5.391a5.526 5.526 0 0 1 5.522-5.523 5.512 5.512 0 0 1 5.523 5.523 5.526 5.526 0 0 1-5.523 5.522c-3.036.001-5.522-2.486-5.522-5.522zm2.178 0a3.357 3.357 0 0 0 3.344 3.344 3.357 3.357 0 0 0 3.345-3.344 3.343 3.343 0 0 0-3.345-3.345 3.343 3.343 0 0 0-3.344 3.345zm16.785-4.423c0 .594-.484 1.1-1.1 1.1a3.343 3.343 0 0 0-3.344 3.344v4.423c0 .595-.484 1.101-1.078 1.101-.616 0-1.1-.506-1.1-1.101V26.56a5.525 5.525 0 0 1 5.522-5.522c.617-.001 1.1.483 1.1 1.077zm8.822 0c0 .594-.484 1.1-1.1 1.1h-1.562v7.767c0 .595-.484 1.101-1.101 1.101-.594 0-1.078-.506-1.078-1.101v-7.767h-1.584c-.594 0-1.078-.506-1.078-1.1a1.08 1.08 0 0 1 1.078-1.078h1.584v-4.401a1.08 1.08 0 0 1 1.078-1.078c.616 0 1.101.484 1.101 1.078v4.401h1.562c.616 0 1.1.484 1.1 1.078zm11.045 3.74v5.104c0 .617-.506 1.101-1.101 1.101a1.084 1.084 0 0 1-1.078-1.101v-5.104c0-1.474-1.21-2.662-2.684-2.662s-2.663 1.188-2.663 2.662v5.104a1.09 1.09 0 0 1-1.1 1.101 1.084 1.084 0 0 1-1.078-1.101V16.636a1.08 1.08 0 0 1 1.078-1.078c.616 0 1.1.484 1.1 1.078v5.171a4.796 4.796 0 0 1 2.663-.792c2.684 0 4.863 2.178 4.863 4.84zm12.342.683c0 .594-.484 1.078-1.101 1.078h-7.591c.462 1.32 1.694 2.266 3.169 2.266.506 0 1.408-.043 2.464-.726.506-.33 1.188-.022 1.452.506.264.55-.021 1.122-.528 1.452-1.452.969-2.574.946-3.388.946a5.526 5.526 0 0 1-5.523-5.522 5.512 5.512 0 0 1 5.523-5.523c2.663 0 5.523 1.936 5.523 5.523zm-8.691-1.1h6.359c-.463-1.54-1.871-2.244-3.19-2.244a3.36 3.36 0 0 0-3.169 2.244zm25.5.11c.021.044.021.066.021.109v5.348c0 .615-.506 1.1-1.1 1.1s-1.078-.484-1.078-1.1V25.46c0-1.232-1.013-2.223-2.244-2.223-1.232 0-2.244.99-2.244 2.223v5.545c0 .615-.484 1.1-1.079 1.1-.594 0-1.1-.484-1.1-1.1V25.46c0-1.232-.99-2.223-2.223-2.223-1.231 0-2.244.99-2.244 2.223v5.545c0 .615-.484 1.1-1.078 1.1a1.09 1.09 0 0 1-1.101-1.1V25.46c0-2.421 1.98-4.401 4.423-4.401 1.32 0 2.509.572 3.322 1.518a4.355 4.355 0 0 1 3.323-1.518c2.442 0 4.422 1.98 4.422 4.401.001.043.001.065-.02.088z"/>
  <path fill="#333334" d="M154.289 18.066l-5.082 13.269c-.177.439-.595.726-1.034.726h-.022c-.462 0-.88-.308-1.034-.726l-4.929-13.18c-.22-.572.066-1.21.639-1.408a1.082 1.082 0 0 1 1.408.638l3.938 10.517 4.07-10.605c.22-.572.836-.858 1.408-.638.573.197.859.836.638 1.407zm1.713.463a1.125 1.125 0 0 1-.33-.771c0-.286.133-.572.33-.77.198-.198.484-.33.771-.33s.572.132.771.33c.197.198.308.484.308.77 0 .286-.11.572-.308.771-.198.198-.484.308-.771.308s-.573-.11-.771-.308zm-.33 12.453v-8.867c0-.594.484-1.078 1.101-1.078a1.08 1.08 0 0 1 1.078 1.078v8.867c0 .616-.484 1.101-1.078 1.101a1.09 1.09 0 0 1-1.101-1.101zm19.011-5.434c.021.044.021.066.021.109v5.348c0 .615-.506 1.1-1.1 1.1s-1.078-.484-1.078-1.1V25.46c0-1.232-1.013-2.223-2.244-2.223-1.232 0-2.245.99-2.245 2.223v5.545c0 .615-.483 1.1-1.078 1.1-.594 0-1.1-.484-1.1-1.1V25.46c0-1.232-.99-2.223-2.223-2.223s-2.244.99-2.244 2.223v5.545c0 .615-.484 1.1-1.078 1.1a1.09 1.09 0 0 1-1.101-1.1V25.46c0-2.421 1.98-4.401 4.423-4.401 1.32 0 2.509.572 3.322 1.518a4.355 4.355 0 0 1 3.323-1.518c2.442 0 4.422 1.98 4.422 4.401.001.043.001.065-.02.088z"/>
</svg>
