<svg xmlns="http://www.w3.org/2000/svg" width="888" height="420" viewBox="0 0 888 420">
  <path d="M709.511 371.312c.145.291.145.436.145.725v35.236c0 4.061-3.334 7.25-7.25 7.25-3.914 0-7.105-3.189-7.105-7.25v-36.541c0-8.119-6.67-14.645-14.789-14.645-8.121 0-14.791 6.525-14.791 14.645v36.541c0 4.061-3.189 7.25-7.105 7.25s-7.25-3.189-7.25-7.25v-36.541a14.605 14.605 0 0 0-14.646-14.645c-8.119 0-14.789 6.525-14.789 14.645v36.541c0 4.061-3.191 7.25-7.105 7.25-4.061 0-7.25-3.189-7.25-7.25v-36.541c0-15.949 13.051-29 29.145-29 8.701 0 16.531 3.77 21.896 10.004 5.365-6.234 13.195-10.004 21.896-10.004 16.094 0 29.145 13.051 29.145 29-.003.29-.003.435-.147.58zm-110.778 6.525c0 3.916-3.191 7.105-7.25 7.105h-50.027c3.045 8.699 11.166 14.936 20.881 14.936 3.336 0 9.279-.291 16.24-4.785 3.336-2.176 7.83-.145 9.57 3.334 1.74 3.627-.145 7.396-3.48 9.57-9.57 6.381-16.965 6.236-22.33 6.236-20.156 0-36.396-16.385-36.396-36.396 0-20.156 16.24-36.396 36.396-36.396 17.545-.001 36.396 12.761 36.396 36.396zm-57.277-7.25h41.906c-3.045-10.15-12.324-14.791-21.025-14.791-9.715 0-17.836 6.236-20.881 14.791zm-24.066 2.756v33.641c0 4.061-3.336 7.25-7.252 7.25-3.914 0-7.104-3.189-7.104-7.25v-33.641c0-9.717-7.977-17.547-17.691-17.547s-17.545 7.83-17.545 17.547v33.641c0 4.061-3.191 7.25-7.25 7.25-3.916 0-7.105-3.189-7.105-7.25v-94.398c0-3.914 3.189-7.105 7.105-7.105 4.059 0 7.25 3.191 7.25 7.105v34.076c5.074-3.336 11.02-5.221 17.545-5.221 17.691-.001 32.047 14.355 32.047 31.902zM444.6 348.69c0 3.916-3.189 7.252-7.25 7.252h-10.295v51.186c0 3.916-3.189 7.25-7.25 7.25-3.915 0-7.105-3.334-7.105-7.25v-51.186h-10.44c-3.916 0-7.105-3.336-7.105-7.252 0-3.914 3.19-7.104 7.105-7.104h10.44v-29.002c0-3.914 3.19-7.105 7.105-7.105 4.061 0 7.25 3.191 7.25 7.105v29.002h10.295c4.06.001 7.25 3.19 7.25 7.104zm-58.142 0c0 3.916-3.19 7.252-7.25 7.252-12.18 0-22.041 9.859-22.041 22.039v29.146c0 3.916-3.19 7.25-7.105 7.25-4.061 0-7.25-3.334-7.25-7.25v-29.146c0-20.154 16.386-36.395 36.396-36.395 4.06.001 7.25 3.19 7.25 7.104zM261.47 377.837c0-20.156 16.386-36.396 36.396-36.396 20.156 0 36.396 16.24 36.396 36.396 0 20.012-16.24 36.396-36.396 36.396-20.01 0-36.396-16.384-36.396-36.396zm14.356 0c0 12.035 9.86 22.041 22.041 22.041 12.181 0 22.041-10.006 22.041-22.041 0-12.18-9.86-22.041-22.041-22.041-12.181 0-22.041 9.861-22.041 22.041zm-25.661 35.525c-1.16.871-2.61 1.16-3.916 1.16-2.32 0-4.64-1.16-6.09-3.334l-47.417-68.152v64.381c0 3.916-3.19 7.105-7.105 7.105-3.915 0-7.25-3.189-7.25-7.105v-87.146c-.29-2.756.87-5.51 3.335-7.105 3.335-2.176 7.831-1.305 10.005 2.176l47.271 70.182v-66.268c0-4.061 3.335-7.25 7.25-7.25 3.916 0 7.105 3.189 7.105 7.25v87.004c.437 2.753-.724 5.509-3.188 7.102z" fill="#86C1D2"/>
  <g fill-rule="evenodd" clip-rule="evenodd" fill="#333334">
    <path d="M444.277 265.478c-36.5-.99-66.604-13.465-91.942-37.787-7.58-7.277-8.666-13.961-1.881-22.247 5.91-7.22 11.067-15.05 16.767-22.446 6.954-9.025 10.769-8.907 18.03.225 1.21 1.523 2.313 3.132 3.517 4.66 7.073 8.997 11.243 9.164 18.092.213 7.806-10.196 15.342-20.604 22.922-30.971 5.548-7.588 11.009-7.832 16.688-.162 10.886 14.701 22.186 29.114 32.606 44.134 7.109 10.244 15.895 15.386 28.488 14.491 7.748-.548 15.568-.107 23.354-.065 3.14.019 6.624-.036 8.236 3.183 2.019 4.025-1.223 6.598-3.652 8.969-21.955 21.41-48.09 34-78.734 36.9-4.65.44-9.315.674-12.491.903z"/>
    <path d="M443.847 5.479c80.147-.155 141.417 71.865 128.404 151.159-.771 4.715 0 11.438-5.662 13.144-6.271 1.886-8.049-4.923-10.873-8.743-9.034-12.221-17.646-24.752-26.655-36.988-8.09-10.98-16.098-11.005-24.244-.25-4.466 5.9-8.508 12.127-13.051 17.967-7.992 10.271-15.625 10.309-23.41-.365-15.844-21.721-31.314-43.713-46.959-65.581-10.615-14.841-17.481-14.778-28.313.346-20.194 28.194-40.276 56.47-60.57 84.593-2.783 3.86-4.502 10.565-10.751 9.076-6.042-1.438-5.125-8.235-5.912-12.863C302.44 77.925 363.616 5.634 443.847 5.479z"/>
  </g>
</svg>
