<svg xmlns="http://www.w3.org/2000/svg" width="316.352" height="48" viewBox="0 0 316.352 48">
  <path opacity=".05" d="M36.063 4.085c5.984 4.148 9.895 11.062 9.895 18.894 0 12.691-10.283 22.979-22.979 22.979-7.833 0-14.745-3.909-18.896-9.894a23.795 23.795 0 0 0 3.862 5.075 23.421 23.421 0 0 0 15.799 6.096c12.974 0 23.491-10.518 23.491-23.489a23.415 23.415 0 0 0-6.096-15.799 23.768 23.768 0 0 0-5.076-3.862zm5.076 3.861C45.074 12.147 47.49 17.788 47.49 24c0 12.974-10.518 23.489-23.492 23.489a23.4 23.4 0 0 1-16.054-6.351C12.193 45.37 18.038 48 24.51 48 37.482 48 48 37.482 48 24.511c0-6.47-2.631-12.317-6.861-16.565z"/>
  <path opacity=".1" d="M41.139 7.946a23.415 23.415 0 0 1 6.098 15.799c0 12.973-10.518 23.489-23.491 23.489a23.417 23.417 0 0 1-15.8-6.096 23.404 23.404 0 0 0 16.055 6.351c12.975 0 23.49-10.518 23.49-23.489a23.404 23.404 0 0 0-6.352-16.054z"/>
  <path opacity=".2" d="M30.895 1.403c8.799 3.222 15.064 11.66 15.064 21.58 0 12.691-10.285 22.979-22.979 22.979-9.916 0-18.355-6.266-21.572-15.064 4.009 12.338 17.26 19.093 29.598 15.085A23.484 23.484 0 0 0 47.24 23.75 23.485 23.485 0 0 0 30.9 1.409l-.005-.006z"/>
  <path fill="#333334" d="M23.49 0c12.975 0 23.49 10.517 23.49 23.489 0 12.974-10.516 23.489-23.49 23.489S0 36.463 0 23.489C0 10.517 10.516 0 23.49 0z"/>
  <path opacity=".1" d="M39.861 6.67a23.4 23.4 0 0 1 6.098 15.798c0 12.974-10.518 23.489-23.49 23.489a23.417 23.417 0 0 1-15.801-6.096c4.268 4.382 10.225 7.117 16.822 7.117 12.973 0 23.49-10.518 23.49-23.489 0-6.599-2.734-12.552-7.119-16.819z"/>
  <path fill-opacity=".1" d="M11.559 10.724h26.555v26.553H11.559V10.724z"/>
  <path fill="#383839" d="M10.537 9.702h26.555v26.554H10.537V9.702z"/>
  <path fill="#86C1D2" d="M20.75 14.809v-2.042h-6.128v2.042h2.042v7.149h-2.042V24h6.128v-2.042h-2.043v-7.149m6.734 9.173c-1.234-.142-2.103-.946-2.88-1.655l1.239-1.4c.408.422 1.021.929 1.658 1.014.637.084 1.457.014 1.949-.402.493-.419.493-.985.493-1.662v-7.11h2.041L29.938 20c.004 1.438-.541 2.409-1.047 2.95-.807.826-1.852.909-2.826 1.045"/>
  <path fill="#ECEEEF" d="M12.58 31.149h10.213v2.042H12.58v-2.042z"/>
  <path fill="none" d="M53 13.749h263.352V34.25H53z"/>
  <path fill="#86C1D2" d="M64.574 30.14a.988.988 0 0 1-.594.176c-.352 0-.704-.176-.924-.506L55.86 19.468v9.77c0 .594-.484 1.078-1.078 1.078s-1.1-.484-1.1-1.078V16.014a1.13 1.13 0 0 1 .506-1.079 1.084 1.084 0 0 1 1.519.33l7.173 10.65V15.859c0-.616.506-1.1 1.1-1.1.594 0 1.078.484 1.078 1.1v13.202c.066.418-.11.836-.484 1.079zm1.714-5.392a5.525 5.525 0 0 1 5.522-5.522 5.512 5.512 0 0 1 5.523 5.522 5.526 5.526 0 0 1-5.523 5.523c-3.036 0-5.522-2.486-5.522-5.523zm2.178 0a3.358 3.358 0 0 0 3.344 3.346 3.358 3.358 0 0 0 3.345-3.346 3.343 3.343 0 0 0-3.345-3.344 3.343 3.343 0 0 0-3.344 3.344zm16.786-4.422c0 .594-.484 1.1-1.1 1.1a3.343 3.343 0 0 0-3.344 3.344v4.423c0 .594-.484 1.101-1.078 1.101-.616 0-1.1-.507-1.1-1.101V24.77a5.525 5.525 0 0 1 5.522-5.522c.616 0 1.1.484 1.1 1.078zm8.822 0c0 .594-.484 1.1-1.1 1.1h-1.562v7.767c0 .594-.484 1.101-1.101 1.101-.594 0-1.078-.507-1.078-1.101v-7.767h-1.584c-.594 0-1.078-.506-1.078-1.1a1.08 1.08 0 0 1 1.078-1.078h1.584v-4.401a1.08 1.08 0 0 1 1.078-1.078c.616 0 1.101.484 1.101 1.078v4.401h1.562c.616 0 1.1.484 1.1 1.078zm11.044 3.74v5.104c0 .616-.506 1.101-1.101 1.101a1.085 1.085 0 0 1-1.078-1.101v-5.104c0-1.474-1.21-2.662-2.684-2.662s-2.663 1.188-2.663 2.662v5.104a1.09 1.09 0 1 1-2.178 0V14.847a1.08 1.08 0 0 1 1.078-1.078c.616 0 1.1.484 1.1 1.078v5.171a4.796 4.796 0 0 1 2.663-.792c2.684 0 4.863 2.178 4.863 4.84zm12.342.682c0 .595-.484 1.078-1.101 1.078h-7.591c.462 1.32 1.694 2.268 3.169 2.268.506 0 1.408-.045 2.464-.727.506-.33 1.188-.021 1.452.506.264.551-.021 1.122-.528 1.452-1.452.969-2.574.946-3.388.946a5.526 5.526 0 0 1-5.523-5.523 5.512 5.512 0 0 1 5.523-5.522c2.663 0 5.523 1.936 5.523 5.522zm-8.691-1.1h6.359c-.463-1.54-1.871-2.244-3.19-2.244a3.364 3.364 0 0 0-3.169 2.244zm25.5.111a.206.206 0 0 1 .021.11v5.347c0 .615-.506 1.1-1.1 1.1s-1.078-.484-1.078-1.1v-5.545c0-1.232-1.013-2.222-2.244-2.222-1.232 0-2.245.99-2.245 2.222v5.545c0 .615-.483 1.1-1.078 1.1-.594 0-1.1-.484-1.1-1.1V23.67c0-1.232-.99-2.222-2.223-2.222s-2.244.99-2.244 2.222v5.545c0 .615-.484 1.1-1.078 1.1a1.09 1.09 0 0 1-1.101-1.1V23.67c0-2.42 1.98-4.4 4.423-4.4 1.32 0 2.509.572 3.322 1.518a4.355 4.355 0 0 1 3.323-1.518c2.442 0 4.422 1.98 4.422 4.4.001.044.001.066-.02.089z"/>
  <path fill="#333334" d="M142.45 29.193v-13.29c0-.594.484-1.078 1.101-1.078a1.08 1.08 0 0 1 1.078 1.078v13.29c0 .616-.484 1.101-1.078 1.101a1.09 1.09 0 0 1-1.101-1.101zm14.499-4.445v4.423a1.09 1.09 0 0 1-1.1 1.101 1.085 1.085 0 0 1-1.078-1.101v-4.423a3.343 3.343 0 0 0-3.345-3.344 3.343 3.343 0 0 0-3.345 3.344v4.423a1.09 1.09 0 0 1-1.1 1.101 1.085 1.085 0 0 1-1.078-1.101v-4.423c0-3.058 2.486-5.522 5.522-5.522s5.524 2.464 5.524 5.522zm7.414-4.422c0 .594-.484 1.1-1.101 1.1H161.7v7.767c0 .594-.483 1.101-1.1 1.101-.595 0-1.078-.507-1.078-1.101v-7.767h-1.585c-.594 0-1.078-.506-1.078-1.1a1.08 1.08 0 0 1 1.078-1.078h1.585v-4.401a1.08 1.08 0 0 1 1.078-1.078c.616 0 1.1.484 1.1 1.078v4.401h1.563c.616 0 1.1.484 1.1 1.078zm11 4.422c0 .595-.484 1.078-1.101 1.078h-7.591c.462 1.32 1.694 2.268 3.169 2.268.506 0 1.408-.045 2.464-.727.506-.33 1.188-.021 1.452.506.264.551-.021 1.122-.528 1.452-1.452.969-2.574.946-3.388.946a5.526 5.526 0 0 1-5.523-5.523 5.512 5.512 0 0 1 5.523-5.522c2.663 0 5.523 1.936 5.523 5.522zm-8.691-1.1h6.359c-.463-1.54-1.871-2.244-3.19-2.244a3.365 3.365 0 0 0-3.169 2.244zm10.031 5.545V14.869c0-.594.484-1.078 1.101-1.078a1.08 1.08 0 0 1 1.078 1.078v14.324c0 .616-.484 1.101-1.078 1.101a1.09 1.09 0 0 1-1.101-1.101zm3.542 0V14.869c0-.594.484-1.078 1.101-1.078a1.08 1.08 0 0 1 1.078 1.078v14.324c0 .616-.484 1.101-1.078 1.101a1.09 1.09 0 0 1-1.101-1.101zm3.872-12.453a1.125 1.125 0 0 1-.33-.771c0-.286.133-.572.33-.77.198-.198.484-.33.771-.33s.572.132.771.33c.197.198.308.484.308.77 0 .286-.11.572-.308.771-.198.198-.484.308-.771.308s-.573-.11-.771-.308zm-.33 12.453v-8.867c0-.594.484-1.078 1.101-1.078a1.08 1.08 0 0 1 1.078 1.078v8.867c0 .616-.484 1.101-1.078 1.101a1.09 1.09 0 0 1-1.101-1.101zm12.365-13.29v9.834c-.021 2.443-2.023 4.423-4.466 4.423s-4.379-2.024-4.445-4.269c0-.615.484-1.056 1.078-1.056.595 0 1.101.44 1.101 1.056 0 1.057 1.012 2.091 2.267 2.091a2.3 2.3 0 0 0 2.288-2.288v-9.792a1.08 1.08 0 0 1 1.078-1.078 1.086 1.086 0 0 1 1.099 1.079zm8.249 13.29v-13.29c0-.594.484-1.078 1.101-1.078a1.08 1.08 0 0 1 1.078 1.078v13.29c0 .616-.484 1.101-1.078 1.101a1.09 1.09 0 0 1-1.101-1.101zM209 30.294c-.594 0-1.1-.507-1.1-1.101V15.969c0-.616.506-1.122 1.1-1.122h3.19c1.166 0 2.267.242 3.301.682.99.44 1.87 1.078 2.574 1.893a7.597 7.597 0 0 1 1.563 2.75 7.928 7.928 0 0 1 .308 3.301 7.789 7.789 0 0 1-2.53 4.862 7.773 7.773 0 0 1-5.148 1.959H209zm3.257-2.2a5.52 5.52 0 0 0 5.479-4.863c.198-1.65-.264-3.19-1.298-4.356-1.057-1.167-2.574-1.827-4.247-1.827h-2.09v11.046h2.156zm18.964 1.055c0 .616-.506 1.1-1.1 1.1h-7.68c-.616 0-1.1-.483-1.1-1.1V15.991c0-.616.483-1.1 1.1-1.1h7.68c.594 0 1.1.484 1.1 1.1 0 .616-.506 1.101-1.1 1.101h-6.579v4.422h5.017c.594 0 1.1.484 1.1 1.1s-.506 1.1-1.1 1.1h-5.017v4.334h6.579c.594.001 1.1.485 1.1 1.101zm11.967 1.1a1.296 1.296 0 0 1-1.452-.792l-.792-2.244h-5.368l-.925 2.244c-.109.507-.528.792-1.056.792h-.242c-.66-.285-.924-.924-.792-1.452l4.708-13.113a1.13 1.13 0 0 1 1.078-.792c.528 0 .902.374 1.034.792l4.467 13.113c.242.528 0 1.167-.66 1.452zm-2.905-5.259l-1.937-5.632-1.979 5.632h3.916zm22.001.859c0 .595-.309 1.98-1.364 3.015-.595.594-1.717 1.32-3.477 1.32-.044 0-.088 0-.133-.022-1.43-.021-2.64-.396-3.608-1.077a5.008 5.008 0 0 1-1.43-1.585 1.167 1.167 0 0 1-.176-.595c0-.615.506-1.1 1.1-1.1.44 0 .836.264.99.682.088.133.33.507.814.859.616.418 1.408.638 2.354.66 2.618.043 2.75-2.135 2.75-2.157 0-.506-.353-1.122-.858-1.519-.572-.461-1.364-.549-2.244-.66-1.21-.154-2.574-.308-3.696-1.452-1.057-1.1-1.452-2.596-.99-4.07a4.443 4.443 0 0 1 3.41-3.059c.396-.11.836-.132 1.32-.132 1.519.022 2.795.44 3.785 1.232a4.321 4.321 0 0 1 1.319 1.606.956.956 0 0 1 .133.506 1.08 1.08 0 0 1-1.078 1.078c-.44 0-.837-.242-1.013-.66h-.021c0-.022-.154-.396-.639-.792-.439-.352-1.254-.77-2.53-.792-.308-.022-.594 0-.836.066-.836.176-1.54.792-1.782 1.606-.132.396-.22 1.167.484 1.893.55.55 1.254.682 2.397.814 1.057.132 2.267.264 3.323 1.1 1.036.815 1.696 2.091 1.696 3.235zm10.405-5.457v10.847c0 2.486-2.047 4.533-4.555 4.533a4.529 4.529 0 0 1-4.07-2.553 1.08 1.08 0 0 1 .506-1.452 1.07 1.07 0 0 1 1.43.506 2.394 2.394 0 0 0 2.135 1.32 2.361 2.361 0 0 0 2.376-2.354v-1.584a4.37 4.37 0 0 1-2.266.616 4.428 4.428 0 0 1-4.423-4.379v-5.5c0-.594.484-1.078 1.078-1.078s1.078.484 1.078 1.078v5.457a2.277 2.277 0 0 0 2.267 2.267 2.263 2.263 0 0 0 2.266-2.267v-5.457a1.08 1.08 0 0 1 1.078-1.078c.616 0 1.1.484 1.1 1.078zm12.342 4.356v4.423a1.09 1.09 0 0 1-1.1 1.101 1.085 1.085 0 0 1-1.078-1.101v-4.423a3.343 3.343 0 0 0-3.345-3.344 3.343 3.343 0 0 0-3.345 3.344v4.423a1.09 1.09 0 0 1-1.1 1.101 1.085 1.085 0 0 1-1.078-1.101v-4.423c0-3.058 2.486-5.522 5.522-5.522s5.524 2.464 5.524 5.522zm7.414-4.422c0 .594-.484 1.1-1.101 1.1h-1.563v7.767c0 .594-.483 1.101-1.1 1.101-.595 0-1.078-.507-1.078-1.101v-7.767h-1.585c-.594 0-1.078-.506-1.078-1.1a1.08 1.08 0 0 1 1.078-1.078h1.585v-4.401a1.08 1.08 0 0 1 1.078-1.078c.616 0 1.1.484 1.1 1.078v4.401h1.563c.617 0 1.101.484 1.101 1.078zm10.868 4.511v4.313c0 .638-.462 1.1-1.1 1.1-.44 0-1.057-.462-1.057-1.1-.946.792-2.002 1.1-3.256 1.1-3.103 0-5.567-2.31-5.567-5.412s2.465-5.567 5.567-5.567 5.413 2.463 5.413 5.566zm-2.157 0c0-1.849-1.408-3.411-3.256-3.411-1.849 0-3.411 1.562-3.411 3.411s1.563 3.257 3.411 3.257 3.256-1.408 3.256-3.257zm12.299 3.675a1.063 1.063 0 0 1-.198 1.518 1.059 1.059 0 0 1-.66.242c-.33 0-.638-.154-.857-.418l-2.575-3.322-2.574 3.322c-.22.264-.527.418-.857.418-.242 0-.463-.088-.66-.242a1.063 1.063 0 0 1-.198-1.518l2.904-3.764-2.904-3.762a1.092 1.092 0 0 1 .198-1.541 1.068 1.068 0 0 1 1.518.198l2.574 3.322 2.575-3.322a1.068 1.068 0 0 1 1.518-.198c.484.374.572 1.056.198 1.541l-2.904 3.762 2.902 3.764z"/>
</svg>
