<svg xmlns="http://www.w3.org/2000/svg" width="216.117" height="48" viewBox="0 0 216.117 48">
  <path fill="none" d="M53 15.426h164.458v17.171H53z"/>
  <path fill="#86C1D2" d="M64.574 32.098a.988.988 0 0 1-.594.176c-.352 0-.704-.176-.924-.506L55.86 21.426v9.77c0 .595-.484 1.078-1.078 1.078s-1.1-.483-1.1-1.078V17.971a1.128 1.128 0 0 1 .506-1.078 1.084 1.084 0 0 1 1.519.33l7.173 10.65V17.817c0-.616.506-1.1 1.1-1.1s1.078.484 1.078 1.1V31.02c.066.418-.11.836-.484 1.078zm1.714-5.391a5.525 5.525 0 0 1 5.522-5.522 5.512 5.512 0 0 1 5.523 5.522 5.526 5.526 0 0 1-5.523 5.523c-3.036 0-5.522-2.486-5.522-5.523zm2.178 0c0 1.826 1.496 3.346 3.344 3.346a3.359 3.359 0 0 0 3.345-3.346 3.343 3.343 0 0 0-3.345-3.344 3.341 3.341 0 0 0-3.344 3.344zm16.786-4.423c0 .594-.484 1.1-1.1 1.1a3.343 3.343 0 0 0-3.344 3.345v4.423c0 .594-.484 1.1-1.078 1.1-.616 0-1.1-.506-1.1-1.1v-4.423a5.526 5.526 0 0 1 5.522-5.523c.616 0 1.1.484 1.1 1.078zm8.822 0c0 .594-.484 1.1-1.1 1.1h-1.562v7.768c0 .594-.484 1.1-1.101 1.1-.594 0-1.078-.506-1.078-1.1v-7.768h-1.584c-.594 0-1.078-.506-1.078-1.1a1.08 1.08 0 0 1 1.078-1.078h1.584v-4.401a1.08 1.08 0 0 1 1.078-1.078c.616 0 1.101.484 1.101 1.078v4.401h1.562c.616 0 1.1.484 1.1 1.078zm11.045 3.741v5.105c0 .615-.506 1.1-1.102 1.1a1.085 1.085 0 0 1-1.078-1.1v-5.105c0-1.475-1.209-2.663-2.684-2.663a2.658 2.658 0 0 0-2.663 2.663v5.105c0 .615-.484 1.1-1.1 1.1a1.085 1.085 0 0 1-1.078-1.1V16.805a1.08 1.08 0 0 1 1.078-1.078c.616 0 1.1.484 1.1 1.078v5.171a4.796 4.796 0 0 1 2.663-.792c2.684 0 4.864 2.178 4.864 4.841zm12.342.682c0 .595-.484 1.078-1.102 1.078h-7.59c.461 1.32 1.693 2.268 3.168 2.268.506 0 1.408-.045 2.465-.727.506-.33 1.188-.021 1.451.506.264.551-.021 1.122-.527 1.452-1.453.968-2.574.946-3.389.946a5.526 5.526 0 0 1-5.523-5.523 5.512 5.512 0 0 1 5.523-5.522c2.663-.001 5.524 1.935 5.524 5.522zm-8.691-1.1h6.359c-.463-1.541-1.871-2.245-3.191-2.245a3.36 3.36 0 0 0-3.168 2.245zm25.5.109a.21.21 0 0 1 .021.111v5.346c0 .617-.506 1.101-1.1 1.101s-1.078-.483-1.078-1.101v-5.545c0-1.232-1.014-2.222-2.244-2.222-1.232 0-2.244.99-2.244 2.222v5.545c0 .617-.484 1.101-1.08 1.101-.594 0-1.1-.483-1.1-1.101v-5.545c0-1.232-.99-2.222-2.223-2.222-1.23 0-2.244.99-2.244 2.222v5.545c0 .617-.484 1.101-1.078 1.101a1.09 1.09 0 0 1-1.1-1.101v-5.545c0-2.42 1.98-4.4 4.422-4.4 1.32 0 2.51.572 3.322 1.518a4.357 4.357 0 0 1 3.324-1.518c2.441 0 4.422 1.98 4.422 4.4.001.045.001.067-.02.088z"/>
  <path fill="#333334" d="M142.848 16.805h8.846c.594 0 1.078.484 1.078 1.1a1.08 1.08 0 0 1-1.078 1.078h-3.346v12.168c0 .616-.484 1.1-1.078 1.1a1.09 1.09 0 0 1-1.1-1.1V18.983h-3.322a1.086 1.086 0 0 1-1.102-1.078c0-.615.484-1.1 1.102-1.1zm19.867 9.902c0 .595-.484 1.078-1.102 1.078h-7.59c.461 1.32 1.693 2.268 3.168 2.268.506 0 1.408-.045 2.465-.727.506-.33 1.188-.021 1.451.506.264.551-.021 1.122-.527 1.452-1.453.968-2.574.946-3.389.946a5.526 5.526 0 0 1-5.523-5.523 5.512 5.512 0 0 1 5.523-5.522c2.663-.001 5.524 1.935 5.524 5.522zm-8.692-1.1h6.359c-.463-1.541-1.871-2.245-3.191-2.245a3.362 3.362 0 0 0-3.168 2.245zm16.633-3.323c0 .594-.484 1.1-1.102 1.1a3.343 3.343 0 0 0-3.344 3.345v4.423c0 .594-.484 1.1-1.078 1.1-.615 0-1.1-.506-1.1-1.1v-4.423a5.525 5.525 0 0 1 5.521-5.523c.619 0 1.103.484 1.103 1.078zm15.819 3.432a.21.21 0 0 1 .021.111v5.346c0 .617-.506 1.101-1.1 1.101s-1.078-.483-1.078-1.101v-5.545c0-1.232-1.014-2.222-2.244-2.222-1.232 0-2.244.99-2.244 2.222v5.545c0 .617-.484 1.101-1.08 1.101-.594 0-1.1-.483-1.1-1.101v-5.545c0-1.232-.99-2.222-2.223-2.222-1.23 0-2.244.99-2.244 2.222v5.545c0 .617-.484 1.101-1.078 1.101a1.09 1.09 0 0 1-1.1-1.101v-5.545c0-2.42 1.98-4.4 4.422-4.4 1.32 0 2.51.572 3.322 1.518a4.357 4.357 0 0 1 3.324-1.518c2.441 0 4.422 1.98 4.422 4.4.001.045.001.067-.02.088zm1.691-7.018a1.125 1.125 0 0 1-.33-.771c0-.286.133-.572.33-.77.197-.198.484-.33.77-.33.287 0 .572.132.771.33.197.198.307.484.307.77 0 .286-.109.572-.307.771a1.102 1.102 0 0 1-.771.308 1.102 1.102 0 0 1-.77-.308zm-.33 12.454v-8.868c0-.594.484-1.078 1.1-1.078a1.08 1.08 0 0 1 1.078 1.078v8.868c0 .616-.484 1.1-1.078 1.1a1.09 1.09 0 0 1-1.1-1.1zm14.478-4.445v4.424c0 .615-.484 1.1-1.102 1.1a1.085 1.085 0 0 1-1.078-1.1v-4.424c0-1.848-1.496-3.344-3.344-3.344s-3.346 1.496-3.346 3.344v4.424c0 .615-.482 1.1-1.1 1.1a1.085 1.085 0 0 1-1.078-1.1v-4.424a5.526 5.526 0 0 1 5.523-5.522 5.526 5.526 0 0 1 5.525 5.522zm1.581-8.009a1.125 1.125 0 0 1-.33-.771c0-.286.133-.572.33-.77.199-.198.484-.33.771-.33.285 0 .572.132.77.33.197.198.309.484.309.77 0 .286-.111.572-.309.771a1.098 1.098 0 0 1-.77.308 1.106 1.106 0 0 1-.771-.308zm-.331 12.454v-8.868c0-.594.484-1.078 1.102-1.078a1.08 1.08 0 0 1 1.078 1.078v8.868c0 .616-.484 1.1-1.078 1.1a1.091 1.091 0 0 1-1.102-1.1zm12.323-.682a1.064 1.064 0 0 1-.199 1.518 1.059 1.059 0 0 1-.66.242c-.33 0-.637-.154-.857-.418l-2.574-3.322-2.574 3.322a1.116 1.116 0 0 1-.857.418c-.242 0-.463-.088-.66-.242a1.064 1.064 0 0 1-.199-1.518l2.904-3.764-2.904-3.762a1.093 1.093 0 0 1 .199-1.541c.461-.374 1.143-.286 1.518.198l2.574 3.322 2.574-3.322c.375-.484 1.057-.572 1.518-.198.484.374.572 1.056.199 1.541l-2.904 3.762 2.902 3.764z"/>
  <path opacity=".05" d="M36.063 4.086c5.983 4.148 9.895 11.061 9.895 18.894 0 12.69-10.285 22.978-22.98 22.978-7.832 0-14.746-3.909-18.895-9.894a23.79 23.79 0 0 0 3.861 5.075 23.421 23.421 0 0 0 15.799 6.096c12.975 0 23.491-10.519 23.491-23.489a23.41 23.41 0 0 0-6.096-15.799 23.675 23.675 0 0 0-5.075-3.861zm5.076 3.861A23.397 23.397 0 0 1 47.49 24c0 12.973-10.517 23.49-23.49 23.49a23.4 23.4 0 0 1-16.055-6.351C12.193 45.371 18.038 48 24.509 48 37.483 48 48 37.483 48 24.512c0-6.471-2.63-12.318-6.861-16.565z"/>
  <path opacity=".1" d="M41.139 7.947a23.409 23.409 0 0 1 6.097 15.799c0 12.972-10.517 23.489-23.49 23.489a23.42 23.42 0 0 1-15.8-6.096A23.398 23.398 0 0 0 24 47.49c12.975 0 23.49-10.518 23.49-23.49 0-6.21-2.414-11.853-6.351-16.053z"/>
  <path opacity=".2" d="M30.896 1.404c8.799 3.221 15.064 11.66 15.064 21.58 0 12.691-10.285 22.978-22.98 22.978-9.915 0-18.354-6.265-21.57-15.063 4.008 12.339 17.259 19.093 29.598 15.085A23.49 23.49 0 0 0 47.242 23.75 23.489 23.489 0 0 0 30.899 1.41l-.003-.006z"/>
  <path fill="#333334" d="M23.49 0c12.975 0 23.49 10.517 23.49 23.49 0 12.973-10.516 23.489-23.49 23.489C10.517 46.979 0 36.463 0 23.49S10.517 0 23.49 0z"/>
  <path opacity=".1" d="M39.862 6.67a23.412 23.412 0 0 1 6.097 15.799c0 12.972-10.517 23.489-23.491 23.489a23.412 23.412 0 0 1-15.799-6.096c4.267 4.382 10.224 7.117 16.82 7.117 12.975 0 23.491-10.518 23.491-23.489 0-6.599-2.734-12.552-7.118-16.82z"/>
  <path fill-opacity=".1" d="M36.255 34.212v-4.085H23.999v4.085m-9.451-4.085l-2.801-2.968 6.304-5.202-6.304-5.198 2.801-2.973 9.455 8.171"/>
  <path fill="#86C1D2" d="M35.233 33.191v-4.084H22.978v4.084m-9.452-4.084l-2.801-2.969 6.304-5.202-6.304-5.198 2.801-2.972 9.455 8.17"/>
</svg>
