<svg xmlns="http://www.w3.org/2000/svg" width="525" height="300" viewBox="0 0 525 300">
  <path fill="#C2A2C9" d="M463.799 240h60v60h-60z"/>
  <path fill="#C8CB79" d="M383.799 240h60v60h-60z"/>
  <path fill="#FCCE85" d="M303.799 240h60v60h-60z"/>
  <path fill="#EFA070" d="M223.799 240h60v60h-60z"/>
  <path fill="#DF7574" d="M143.799 240h60v60h-60z"/>
  <path fill="#5C81AE" d="M383.799 160h60v60h-60z"/>
  <path fill="#88B2CD" d="M303.799 160h60v60h-60z"/>
  <path fill="#86C1D2" d="M223.799 160h60v60h-60z"/>
  <path fill="#90CDC7" d="M143.799 160h60v60h-60z"/>
  <path fill="#ECEEEF" d="M303.799 80h60v60h-60z"/>
  <path fill="#DEDEDE" d="M223.799 79.999h60V140h-60z"/>
  <path fill="#CACACA" d="M143.799 80h60v60h-60z"/>
  <path fill="#606062" d="M383.799 0h60v60h-60z"/>
  <path fill="#383839" d="M303.799 0h60v60h-60z"/>
  <path fill="#333334" d="M223.799 0h60v60h-60z"/>
  <path fill="#2D2D2E" d="M143.799 0h60v60h-60z"/>
  <path d="M47.906 272.402l3.499 5.697c.35.576.175 1.35-.425 1.725-.2.125-.425.176-.65.176-.425 0-.825-.225-1.075-.6l-4.149-6.799h-2.549v6.174c0 .699-.575 1.225-1.25 1.225-.7 0-1.25-.525-1.25-1.225v-14.947c0-.674.575-1.25 1.275-1.25h5.299c2.524 0 4.949 2.15 4.974 4.949 0 2.225-1.5 4.075-3.699 4.875zm1.225-4.849c-.025-1.4-1.175-2.475-2.599-2.475h-3.974v5.023h3.974a2.586 2.586 0 0 0 2.599-2.548zm15.874 6.273v4.898c0 .725-.525 1.25-1.25 1.25-.5 0-1.2-.525-1.2-1.25-1.075.9-2.274 1.25-3.699 1.25-3.524 0-6.323-2.625-6.323-6.148s2.799-6.324 6.323-6.324c3.525 0 6.149 2.801 6.149 6.324zm-2.449 0c0-2.1-1.6-3.875-3.699-3.875s-3.874 1.775-3.874 3.875 1.774 3.699 3.874 3.699 3.699-1.599 3.699-3.699zm4.277-9.197a1.275 1.275 0 0 1-.375-.875c0-.326.15-.65.375-.875.225-.225.55-.375.875-.375.325 0 .65.15.875.375.225.225.35.549.35.875 0 .324-.125.65-.35.875a1.25 1.25 0 0 1-.875.35 1.25 1.25 0 0 1-.875-.35zm-.375 14.146v-10.072c0-.676.55-1.225 1.25-1.225.675 0 1.225.549 1.225 1.225v10.072c0 .699-.55 1.25-1.225 1.25-.7 0-1.25-.55-1.25-1.25zm16.447-5.048v5.023c0 .699-.55 1.25-1.25 1.25a1.233 1.233 0 0 1-1.225-1.25v-5.023c0-2.1-1.699-3.799-3.799-3.799s-3.799 1.699-3.799 3.799v5.023c0 .699-.55 1.25-1.25 1.25a1.233 1.233 0 0 1-1.225-1.25v-5.023c0-3.475 2.824-6.273 6.273-6.273s6.275 2.798 6.275 6.273zm13.975-.051a6.277 6.277 0 0 1-6.273 6.273c-3.449 0-6.273-2.824-6.273-6.273v-11.222c0-.674.55-1.225 1.25-1.225.675 0 1.225.551 1.225 1.225v6.225a6.257 6.257 0 0 1 3.799-1.275 6.258 6.258 0 0 1 6.272 6.272zm-2.475 0c0-2.1-1.699-3.799-3.799-3.799s-3.799 1.699-3.799 3.773v.025c0 2.1 1.7 3.799 3.799 3.799s3.799-1.724 3.799-3.798zm3.928.051a6.276 6.276 0 0 1 6.273-6.273 6.26 6.26 0 0 1 6.273 6.273 6.277 6.277 0 0 1-6.273 6.273c-3.449 0-6.273-2.824-6.273-6.273zm2.474 0c0 2.074 1.7 3.799 3.799 3.799s3.799-1.725 3.799-3.799c0-2.1-1.699-3.799-3.799-3.799s-3.799 1.699-3.799 3.799zm27.997-4.549l-3.75 9.996c-.2.477-.675.826-1.199.826-.525 0-1-.326-1.175-.826l-2.6-6.922-2.574 6.922c-.2.477-.675.826-1.2.826s-1-.326-1.175-.826l-3.749-9.996a1.22 1.22 0 0 1 .725-1.6c.625-.25 1.35.074 1.575.725l2.625 6.973 2.599-6.924c.125-.35.375-.648.75-.773a.985.985 0 0 1 .375-.076h.275s0 .025.025.025h.05c.025 0 .025 0 .05.025h.05c.025.025.025.025.05.025.35.125.625.424.725.773l2.6 6.924 2.624-6.973c.25-.65.95-.975 1.6-.725.624.226.948.95.724 1.601zm-29.471-70.403v-15.098c0-.674.55-1.225 1.25-1.225.675 0 1.225.551 1.225 1.225v15.098c0 .699-.55 1.25-1.225 1.25-.7 0-1.25-.55-1.25-1.25zm3.925-5.023c0-3.475 2.799-6.273 6.249-6.273a6.317 6.317 0 0 1 5.449 3.123c.35.6.125 1.35-.45 1.699-.6.326-1.35.125-1.7-.449a3.791 3.791 0 0 0-3.299-1.9 3.814 3.814 0 0 0-3.799 3.801c0 2.074 1.725 3.799 3.799 3.799 1.3 0 2.499-.65 3.199-1.75.375-.574 1.149-.725 1.725-.375.575.375.725 1.15.35 1.725a6.228 6.228 0 0 1-5.273 2.875c-3.45-.002-6.25-2.826-6.25-6.275zm25.547-.025c0 .674-.55 1.225-1.25 1.225h-8.623c.525 1.5 1.925 2.574 3.599 2.574.575 0 1.6-.051 2.799-.824.575-.375 1.35-.025 1.65.574.3.625-.025 1.275-.6 1.648-1.649 1.102-2.924 1.076-3.849 1.076a6.277 6.277 0 0 1-6.273-6.273 6.26 6.26 0 0 1 6.273-6.273c3.025-.001 6.274 2.198 6.274 6.273zm-9.873-1.25h7.223c-.525-1.75-2.125-2.549-3.624-2.549a3.82 3.82 0 0 0-3.599 2.549zm-91.575-76.115c0 .7-.575 1.25-1.25 1.25h-8.698c-.7 0-1.25-.55-1.25-1.25v-14.946c0-.7.55-1.25 1.25-1.25.675 0 1.25.55 1.25 1.25v13.696h7.448c.675 0 1.25.55 1.25 1.25zm1.902-14.122a1.273 1.273 0 0 1-.375-.875c0-.325.15-.65.375-.875.225-.225.55-.375.875-.375.325 0 .65.15.875.375.225.225.35.55.35.875 0 .325-.125.65-.35.875a1.25 1.25 0 0 1-.875.35 1.25 1.25 0 0 1-.875-.35zm-.375 14.147v-10.073c0-.675.55-1.225 1.25-1.225.675 0 1.225.55 1.225 1.225v10.073c0 .7-.55 1.25-1.225 1.25a1.24 1.24 0 0 1-1.25-1.25zm16.447 1.224c0 3.449-2.824 6.273-6.273 6.273-2.424 0-4.574-1.35-5.648-3.524-.3-.625-.05-1.35.575-1.65.6-.3 1.35-.05 1.649.55.65 1.325 1.95 2.15 3.424 2.15 2.075 0 3.749-1.675 3.799-3.724v-1.375c-1.075.8-2.374 1.3-3.799 1.3a6.277 6.277 0 0 1-6.273-6.273 6.26 6.26 0 0 1 6.273-6.273 6.277 6.277 0 0 1 6.273 6.273v6.273zm-2.475-6.273c0-2.1-1.724-3.799-3.799-3.799-2.1 0-3.799 1.7-3.799 3.799 0 2.075 1.7 3.799 3.799 3.799 2.075 0 3.799-1.724 3.799-3.799zm14.925-.775v5.799c0 .7-.575 1.25-1.25 1.25s-1.225-.55-1.225-1.25v-5.799c0-1.674-1.375-3.024-3.049-3.024s-3.024 1.35-3.024 3.024v5.799c0 .7-.55 1.25-1.25 1.25-.675 0-1.225-.55-1.225-1.25v-16.271c0-.675.55-1.225 1.225-1.225.7 0 1.25.55 1.25 1.225v5.874c.875-.575 1.9-.9 3.024-.9 3.05-.001 5.524 2.474 5.524 5.498zm8.725-4.249c0 .675-.55 1.25-1.25 1.25h-1.774v8.823c0 .675-.55 1.25-1.25 1.25-.675 0-1.225-.575-1.225-1.25v-8.823h-1.799c-.675 0-1.225-.575-1.225-1.25s.55-1.225 1.225-1.225h1.799v-4.999c0-.675.55-1.225 1.225-1.225.7 0 1.25.55 1.25 1.225v4.999h1.774c.701 0 1.25.55 1.25 1.225zm29.547-4.599l-5.774 15.071c-.2.5-.675.825-1.175.825h-.024c-.525 0-1-.35-1.175-.825l-2.724-7.023-2.774 7.023c-.2.5-.675.825-1.175.825h-.025c-.525 0-1-.35-1.175-.825l-5.599-14.972a1.22 1.22 0 0 1 .725-1.6c.65-.25 1.35.075 1.6.725l4.474 11.947 2.774-7.023c.2-.5.675-.825 1.175-.8.525-.025 1 .3 1.175.8l2.749 7.023 4.624-12.047c.25-.65.95-.975 1.6-.725.649.226.974.951.724 1.601zm1.98.525a1.273 1.273 0 0 1-.375-.875c0-.325.15-.65.375-.875.225-.225.55-.375.875-.375.325 0 .65.15.875.375.225.225.35.55.35.875 0 .325-.125.65-.35.875a1.25 1.25 0 0 1-.875.35c-.325 0-.651-.125-.875-.35zm-.375 14.147v-10.073c0-.675.55-1.225 1.25-1.225.675 0 1.225.55 1.225 1.225v10.073c0 .7-.55 1.25-1.225 1.25a1.24 1.24 0 0 1-1.25-1.25zm16.446-5.049v5.024c0 .7-.55 1.25-1.25 1.25-.675 0-1.225-.55-1.225-1.25v-5.024c0-2.1-1.699-3.799-3.799-3.799s-3.799 1.7-3.799 3.799v5.024c0 .7-.55 1.25-1.25 1.25-.675 0-1.225-.55-1.225-1.25v-5.024c0-3.474 2.824-6.273 6.273-6.273s6.275 2.799 6.275 6.273zm11.576-5.049v-6.224c0-.675.55-1.225 1.225-1.225.7 0 1.25.55 1.25 1.225v11.222c0 3.449-2.824 6.273-6.273 6.273a6.277 6.277 0 0 1-6.273-6.273 6.262 6.262 0 0 1 6.273-6.274 6.27 6.27 0 0 1 3.798 1.276zm0 4.999v-.025c0-2.074-1.7-3.774-3.799-3.774s-3.799 1.7-3.799 3.799c0 2.074 1.699 3.799 3.799 3.799s3.799-1.7 3.799-3.799zM10.959 40.024a1.27 1.27 0 0 1-1.25-1.25V23.753c0-.7.575-1.274 1.25-1.274h3.624c1.325 0 2.574.275 3.749.774a8.309 8.309 0 0 1 2.924 2.149c.8.9 1.399 1.95 1.774 3.125.375 1.2.5 2.449.35 3.749-.25 2.125-1.275 4.074-2.875 5.524a8.837 8.837 0 0 1-5.849 2.224h-3.697zm3.699-2.499a6.268 6.268 0 0 0 6.224-5.523c.225-1.875-.3-3.624-1.475-4.949-1.2-1.325-2.924-2.075-4.824-2.075h-2.375v12.547h2.45zm22.598-3.699v4.898c0 .725-.525 1.25-1.25 1.25-.5 0-1.2-.525-1.2-1.25-1.075.9-2.274 1.25-3.699 1.25-3.524 0-6.323-2.625-6.323-6.148a6.283 6.283 0 0 1 6.323-6.324c3.525 0 6.149 2.8 6.149 6.324zm-2.449 0c0-2.1-1.6-3.874-3.699-3.874s-3.874 1.774-3.874 3.874c0 2.099 1.774 3.699 3.874 3.699s3.699-1.6 3.699-3.699zm11.475-5.124c0 .675-.55 1.25-1.25 1.25a3.797 3.797 0 0 0-3.799 3.799v5.024c0 .675-.55 1.25-1.225 1.25-.7 0-1.25-.575-1.25-1.25v-5.024a6.277 6.277 0 0 1 6.273-6.273c.701 0 1.251.549 1.251 1.224zm11.223 10.947c-.225.2-.5.3-.774.3-.375 0-.725-.15-.95-.45l-4.749-5.698-.775.524V38.7c0 .7-.575 1.25-1.25 1.25s-1.225-.55-1.225-1.25V22.504c0-.675.55-1.225 1.225-1.225s1.25.55 1.25 1.225v8.898l5.674-3.724a1.258 1.258 0 0 1 1.75.15c.425.525.35 1.325-.175 1.75l-4.374 2.874 4.549 5.474a1.227 1.227 0 0 1-.176 1.723zm30.023-15.545l-5.774 15.071c-.2.5-.675.825-1.175.825h-.025c-.525 0-1-.35-1.175-.825l-2.724-7.023-2.774 7.023c-.2.5-.675.825-1.175.825h-.025c-.525 0-1-.35-1.175-.825l-5.599-14.971a1.22 1.22 0 0 1 .725-1.6c.65-.25 1.35.075 1.6.725l4.474 11.947 2.774-7.023c.2-.5.675-.825 1.175-.8.525-.025 1 .3 1.175.8l2.749 7.023 4.624-12.047c.25-.65.95-.975 1.6-.725.65.225.974.95.725 1.6zm11.376 9.722v4.898c0 .725-.525 1.25-1.25 1.25-.5 0-1.2-.525-1.2-1.25-1.075.9-2.274 1.25-3.699 1.25-3.524 0-6.323-2.625-6.323-6.148a6.283 6.283 0 0 1 6.323-6.324c3.525 0 6.149 2.8 6.149 6.324zm-2.449 0c0-2.1-1.6-3.874-3.699-3.874s-3.874 1.774-3.874 3.874c0 2.099 1.774 3.699 3.874 3.699s3.699-1.6 3.699-3.699zm10.95-5.124c0 .675-.55 1.25-1.25 1.25h-1.774v8.823c0 .675-.55 1.25-1.25 1.25-.675 0-1.225-.575-1.225-1.25v-8.823h-1.799c-.675 0-1.225-.575-1.225-1.25s.55-1.225 1.225-1.225h1.799v-4.999c0-.675.55-1.225 1.225-1.225.7 0 1.25.55 1.25 1.225v4.999h1.774c.7.001 1.25.55 1.25 1.225zm12.499 5.024c0 .675-.55 1.225-1.25 1.225h-8.623c.525 1.5 1.925 2.574 3.599 2.574.575 0 1.6-.05 2.799-.825.575-.375 1.35-.025 1.65.575.3.625-.025 1.274-.6 1.649-1.649 1.1-2.924 1.075-3.849 1.075a6.277 6.277 0 0 1-6.273-6.273 6.26 6.26 0 0 1 6.273-6.273c3.025 0 6.274 2.199 6.274 6.273zm-9.872-1.249h7.223c-.525-1.75-2.125-2.55-3.624-2.55a3.82 3.82 0 0 0-3.599 2.55zm18.898-3.775c0 .675-.55 1.25-1.25 1.25a3.797 3.797 0 0 0-3.799 3.799v5.024c0 .675-.55 1.25-1.225 1.25-.7 0-1.25-.575-1.25-1.25v-5.024a6.277 6.277 0 0 1 6.273-6.273c.701 0 1.251.549 1.251 1.224z" fill="#333334"/>
</svg>
