<svg xmlns="http://www.w3.org/2000/svg" width="184.1" height="48" viewBox="0 0 184.1 48">
  <path fill="none" d="M53 15.415h131.791v17.171H53z"/>
  <path fill="#86C1D2" d="M64.574 31.805a.988.988 0 0 1-.594.176c-.352 0-.704-.176-.924-.506L55.86 21.133v9.77c0 .595-.484 1.078-1.078 1.078s-1.1-.483-1.1-1.078V17.678a1.128 1.128 0 0 1 .506-1.078 1.084 1.084 0 0 1 1.519.33l7.173 10.65V17.524c0-.616.506-1.1 1.1-1.1s1.078.484 1.078 1.1v13.202c.066.419-.11.837-.484 1.079zm1.714-5.392a5.525 5.525 0 0 1 5.522-5.522 5.512 5.512 0 0 1 5.523 5.522 5.526 5.526 0 0 1-5.523 5.523c-3.036.001-5.522-2.486-5.522-5.523zm2.178 0c0 1.826 1.496 3.346 3.344 3.346a3.359 3.359 0 0 0 3.345-3.346 3.343 3.343 0 0 0-3.345-3.344 3.343 3.343 0 0 0-3.344 3.344zm16.786-4.422c0 .594-.484 1.1-1.1 1.1a3.343 3.343 0 0 0-3.344 3.344v4.423c0 .594-.484 1.1-1.078 1.1-.616 0-1.1-.506-1.1-1.1v-4.423a5.525 5.525 0 0 1 5.522-5.522c.616 0 1.1.484 1.1 1.078zm8.822 0c0 .594-.484 1.1-1.1 1.1h-1.562v7.767c0 .594-.484 1.1-1.101 1.1-.594 0-1.078-.506-1.078-1.1v-7.767h-1.584c-.594 0-1.078-.506-1.078-1.1a1.08 1.08 0 0 1 1.078-1.078h1.584v-4.401a1.08 1.08 0 0 1 1.078-1.078c.616 0 1.101.484 1.101 1.078v4.401h1.562c.616 0 1.1.484 1.1 1.078zm11.045 3.74v5.105c0 .615-.506 1.1-1.102 1.1a1.085 1.085 0 0 1-1.078-1.1v-5.105c0-1.474-1.209-2.662-2.684-2.662a2.658 2.658 0 0 0-2.663 2.662v5.105c0 .615-.484 1.1-1.1 1.1a1.085 1.085 0 0 1-1.078-1.1V16.512a1.08 1.08 0 0 1 1.078-1.078c.616 0 1.1.484 1.1 1.078v5.171a4.796 4.796 0 0 1 2.663-.792c2.684 0 4.864 2.178 4.864 4.84zm12.342.682c0 .595-.484 1.078-1.102 1.078h-7.59c.461 1.32 1.693 2.268 3.168 2.268.506 0 1.408-.045 2.465-.727.506-.33 1.188-.021 1.451.506.264.551-.021 1.122-.527 1.452-1.453.968-2.574.946-3.389.946a5.526 5.526 0 0 1-5.523-5.523 5.512 5.512 0 0 1 5.523-5.522c2.663 0 5.524 1.936 5.524 5.522zm-8.691-1.1h6.359c-.463-1.54-1.871-2.244-3.191-2.244a3.36 3.36 0 0 0-3.168 2.244zm25.5.11a.21.21 0 0 1 .021.111v5.346c0 .617-.506 1.101-1.1 1.101s-1.078-.483-1.078-1.101v-5.545c0-1.231-1.014-2.222-2.244-2.222-1.232 0-2.244.99-2.244 2.222v5.545c0 .617-.484 1.101-1.08 1.101-.594 0-1.1-.483-1.1-1.101v-5.545c0-1.231-.99-2.222-2.223-2.222-1.23 0-2.244.99-2.244 2.222v5.545c0 .617-.484 1.101-1.078 1.101a1.09 1.09 0 0 1-1.1-1.101v-5.545c0-2.42 1.98-4.4 4.422-4.4 1.32 0 2.51.572 3.322 1.518a4.357 4.357 0 0 1 3.324-1.518c2.441 0 4.422 1.98 4.422 4.4.001.045.001.066-.02.088z"/>
  <path fill="#333334" d="M151.275 17.568v9.834a4.477 4.477 0 0 1-4.467 4.424c-2.443 0-4.379-2.025-4.445-4.27 0-.615.484-1.056 1.078-1.056s1.1.44 1.1 1.056c0 1.057 1.012 2.09 2.268 2.09a2.299 2.299 0 0 0 2.287-2.287v-9.792a1.08 1.08 0 0 1 1.078-1.078 1.086 1.086 0 0 1 1.101 1.079zm12.276 8.934v4.313c0 .638-.463 1.101-1.1 1.101-.441 0-1.057-.463-1.057-1.101-.947.792-2.002 1.101-3.256 1.101-3.104 0-5.568-2.311-5.568-5.413s2.465-5.567 5.568-5.567c3.102-.001 5.413 2.463 5.413 5.566zm-2.156 0c0-1.849-1.408-3.411-3.256-3.411-1.85 0-3.412 1.562-3.412 3.411s1.563 3.257 3.412 3.257c1.847 0 3.256-1.408 3.256-3.257zm11.308-4.093l-3.301 8.801c-.176.44-.596.727-1.035.727h-.021c-.463 0-.881-.309-1.035-.727l-3.299-8.801a1.072 1.072 0 0 1 .637-1.408 1.081 1.081 0 0 1 1.408.638l2.311 6.139 2.289-6.139a1.081 1.081 0 0 1 1.408-.638c.572.198.857.836.638 1.408zm11.397 4.093v4.313c0 .638-.463 1.101-1.1 1.101-.441 0-1.057-.463-1.057-1.101-.947.792-2.002 1.101-3.256 1.101-3.104 0-5.568-2.311-5.568-5.413s2.465-5.567 5.568-5.567c3.102-.001 5.413 2.463 5.413 5.566zm-2.157 0c0-1.849-1.408-3.411-3.256-3.411-1.85 0-3.412 1.562-3.412 3.411s1.563 3.257 3.412 3.257c1.848 0 3.256-1.408 3.256-3.257z"/>
  <path opacity=".05" d="M36.063 4.356c5.983 4.148 9.895 11.061 9.895 18.893 0 12.691-10.284 22.978-22.98 22.978-7.832 0-14.745-3.908-18.895-9.893a23.806 23.806 0 0 0 3.862 5.074 23.412 23.412 0 0 0 15.798 6.096c12.975 0 23.491-10.518 23.491-23.489a23.407 23.407 0 0 0-6.096-15.798 23.74 23.74 0 0 0-5.075-3.861zm5.076 3.862a23.398 23.398 0 0 1 6.352 16.053c0 12.972-10.517 23.49-23.491 23.49a23.395 23.395 0 0 1-16.054-6.352c4.249 4.232 10.094 6.861 16.565 6.861C37.483 48.271 48 37.753 48 24.782c0-6.47-2.63-12.317-6.861-16.564z"/>
  <path opacity=".1" d="M41.14 8.218a23.411 23.411 0 0 1 6.097 15.798c0 12.973-10.517 23.489-23.491 23.489a23.415 23.415 0 0 1-15.799-6.096c4.201 3.936 9.843 6.352 16.055 6.352 12.974 0 23.49-10.518 23.49-23.49A23.4 23.4 0 0 0 41.14 8.218z"/>
  <path opacity=".2" d="M30.896 1.675c8.799 3.221 15.064 11.66 15.064 21.581 0 12.689-10.285 22.978-22.979 22.978-9.915 0-18.355-6.266-21.571-15.064 4.008 12.338 17.259 19.094 29.598 15.086a23.49 23.49 0 0 0 16.234-22.234A23.489 23.489 0 0 0 30.9 1.68l-.004-.005z"/>
  <path fill="#333334" d="M23.491.271c12.974 0 23.49 10.516 23.49 23.489s-10.517 23.489-23.49 23.489C10.517 47.249 0 36.733 0 23.76S10.517.271 23.491.271z"/>
  <path opacity=".1" d="M39.862 6.941a23.403 23.403 0 0 1 6.097 15.798c0 12.973-10.517 23.489-23.49 23.489a23.42 23.42 0 0 1-15.8-6.096c4.268 4.383 10.224 7.117 16.821 7.117 12.974 0 23.49-10.518 23.49-23.489 0-6.599-2.734-12.552-7.118-16.819z"/>
  <path fill-opacity=".1" d="M25.445 20.721c1.454 1.601-.391 3.046-.391 3.046s3.692-1.831 2.005-4.115c-1.594-2.135-2.803-3.189 3.772-6.856 0 0-10.317 2.47-5.392 7.912m7.807 10.869s.855.674-.938 1.193c-3.406.986-14.172 1.285-17.161.035-1.072-.447.942-1.064 1.576-1.197.665-.139 1.038-.115 1.038-.115-1.189-.811-7.726 1.59-3.315 2.271 12.026 1.87 21.92-.841 18.8-2.187m-12.603-8.778s-5.477 1.245-1.939 1.702c1.498.19 4.466.147 7.244-.074 2.271-.182 4.546-.574 4.546-.574s-.805.331-1.381.709c-5.557 1.4-16.298.748-13.212-.686 2.617-1.211 4.745-1.072 4.745-1.072m9.822 5.261c5.652-2.814 3.038-5.519 1.217-5.156-.447.092-.647.166-.647.166s.161-.248.479-.357c3.615-1.215 6.384 3.589-1.163 5.492 0 0 .086-.074.112-.145M27.058 6.902s3.129 3.002-2.973 7.62c-4.887 3.703-1.112 5.815 0 8.225-2.852-2.465-4.948-4.641-3.542-6.667 2.06-2.969 7.777-4.405 6.514-9.175M21.2 35.698c5.424.334 13.757-.188 13.957-2.643 0 0-.381.928-4.488 1.67-4.631.832-10.343.738-13.732.203 0 .001.695.55 4.263.77"/>
  <path fill="#86C1D2" d="M20.088 34.587c5.426.334 13.759-.188 13.958-2.643 0 0-.382.928-4.488 1.67-4.631.834-10.343.736-13.731.205-.001 0 .693.545 4.261.768"/>
  <path fill="#86C1D2" d="M32.134 30.468s.855.672-.938 1.191c-3.406.986-14.17 1.285-17.161.035-1.071-.447.941-1.063 1.575-1.197.665-.141 1.038-.113 1.038-.113-1.188-.813-7.726 1.588-3.315 2.268 12.026 1.873 21.921-.84 18.802-2.186m-2.778-3.51c5.651-2.816 3.038-5.521 1.216-5.156-.447.09-.646.163-.646.163s.161-.247.478-.354c3.616-1.216 6.384 3.587-1.163 5.488 0 0 .086-.072.113-.143m-9.823-5.265s-5.478 1.245-1.939 1.701c1.497.19 4.467.148 7.244-.073 2.27-.183 4.544-.575 4.544-.575s-.803.331-1.38.709c-5.555 1.401-16.297.746-13.212-.686 2.617-1.211 4.744-1.072 4.744-1.072"/>
  <path fill="#EFA070" d="M24.335 19.609c1.454 1.601-.392 3.046-.392 3.046s3.693-1.831 2.005-4.113c-1.592-2.137-2.803-3.19 3.773-6.858 0 0-10.317 2.47-5.393 7.912"/>
  <path fill="#EFA070" d="M25.946 5.79s3.129 3.003-2.974 7.622c-4.886 3.701-1.11 5.814 0 8.225-2.851-2.467-4.947-4.641-3.542-6.667 2.061-2.97 7.778-4.405 6.514-9.175"/>
</svg>
