<svg xmlns="http://www.w3.org/2000/svg" width="245.434" height="48" viewBox="0 0 245.434 48">
  <path opacity=".05" d="M36.063 4.085c5.983 4.148 9.895 11.062 9.895 18.895 0 12.691-10.284 22.978-22.98 22.978-7.832 0-14.745-3.91-18.895-9.895a23.796 23.796 0 0 0 3.861 5.076 23.424 23.424 0 0 0 15.799 6.096c12.975 0 23.491-10.518 23.491-23.491a23.41 23.41 0 0 0-6.096-15.798 23.74 23.74 0 0 0-5.075-3.861zm5.076 3.861A23.4 23.4 0 0 1 47.49 24c0 12.973-10.516 23.488-23.49 23.488a23.405 23.405 0 0 1-16.055-6.35C12.194 45.37 18.038 48 24.51 48 37.483 48 48 37.483 48 24.51c0-6.469-2.63-12.316-6.861-16.564z"/>
  <path opacity=".1" d="M41.139 7.946a23.408 23.408 0 0 1 6.097 15.798c0 12.973-10.517 23.491-23.49 23.491a23.417 23.417 0 0 1-15.799-6.096 23.401 23.401 0 0 0 16.055 6.35c12.974 0 23.49-10.518 23.49-23.488a23.406 23.406 0 0 0-6.353-16.055z"/>
  <path opacity=".2" d="M30.896 1.404c8.799 3.221 15.064 11.66 15.064 21.58 0 12.69-10.285 22.979-22.979 22.979-9.915 0-18.354-6.266-21.571-15.066 4.008 12.34 17.26 19.094 29.598 15.086A23.487 23.487 0 0 0 47.242 23.75 23.49 23.49 0 0 0 30.9 1.409l-.004-.005z"/>
  <path fill="#333334" d="M23.491 0c12.974 0 23.49 10.517 23.49 23.489 0 12.974-10.517 23.49-23.49 23.49C10.517 46.979 0 36.461 0 23.489 0 10.517 10.517 0 23.491 0z"/>
  <path opacity=".1" d="M39.862 6.67a23.406 23.406 0 0 1 6.097 15.798c0 12.974-10.517 23.49-23.49 23.49a23.42 23.42 0 0 1-15.8-6.096c4.268 4.381 10.224 7.117 16.82 7.117 12.975 0 23.491-10.518 23.491-23.49 0-6.599-2.734-12.552-7.118-16.819z"/>
  <path fill="#86C1D2" d="M37.023 26.584v2.389h-2.401v1.459h2.401v2.391h1.447v-2.391h2.39v-1.459h-2.39v-2.389h-1.447zm-7.42 0v2.389h-2.399v1.459h2.399v2.391h1.449v-2.391h2.39v-1.459h-2.39v-2.389h-1.449zm-4.079-4.582c2.266 0 .229 11.545-1.723 11.526-1.082-.01-4.006-7.773-3.477-8.645-.924.949-2.157 3.076-3.26 5.381-1.427 2.982-2.714 6.104-3.662 5.701-.925-.566 1.453-4.232 3.56-7.602 1.772-2.836 2.579-5.501 3.986-5.501 1.516 0 1.624 5.031 3.417 8.349 1.189-1.892-.783-9.209 1.159-9.209z"/>
  <path fill="#DEDEDE" d="M16.114 29.598c-.544 0-.773 1.031-.773 1.031s.231-.264.467-.42c.115-.074.219-.135.307-.111.303.078.551.705.518 1.016a.233.233 0 0 0-.017.082c-.011.021-.022.041-.032.064-.218.463-.436.934-.646 1.371.847-.279 1.403-1.146 1.403-1.775 0-.264-.094-.488-.225-.678-.229-.33-.595-.535-.921-.564-.028-.004-.052-.016-.081-.016z"/>
  <path fill="#DEDEDE" d="M18.671 31.579c0-2.273-1.041-4.051-2.8-4.051-1.507 0-2.466 1.135-2.576 2.975-.027.467.15.885.397 1.232l.912-.531a1.819 1.819 0 0 1-.197-.75c0-.916.488-1.789 1.413-1.789 1.246 0 1.801 1.422 1.801 2.701l1.05.213z"/>
  <path fill="#DEDEDE" d="M13.495 32.954c-3.628-4.734-.727-7.527 2-10.376.073.599.345 1.05.95 1.25.429.287.902-.774 1.75-.875.696-.084 1.484.906 2.018.999.386-.356.813-.562.973-.817-.325-1.144-.646-1.951-1.688-1.732-.505-.219-.954-.564-1.202-1.025 1.07-.033 1.785.043 1.976-.649.983.104 1.82.229 2.523.185 3.62-.235 3.74-2.492 1.608-5.02-.588-.698-1.354-.69-2.232-.691-.952-1.064-2.268-1.966-4.05-2.2-.097.646.179 1.262.475 1.876-3.738-3.535-8.308-1.364-10.054 1.404-2.785 4.418-1.451 13.169 4.253 18.873 1.838 1.84 5.876.273 5.876-2.574 0-2.273-1.041-4.051-2.8-4.051-1.507 0-2.576 1.129-2.576 2.975 0 1.281 1.183 2.225 2.101 2.225 1.154 0 1.938-1.117 1.938-1.873 0-.762-.7-1.25-1.226-1.25-.545 0-.775 1.023-.775 1.023s.514-.596.788-.523c.302.078.547.705.513 1.016-.039.35-.875.754-1.226.764-.55.012-1.001-.881-1.001-1.43 0-.916.488-1.789 1.413-1.789 1.246 0 1.801 1.422 1.801 2.701 0 1.041-1.144 2.377-2.525 2.377-.515-.004-1.342-.455-1.601-.793z"/>
  <path fill="#ECEEEF" d="M22.534 15.982a1.457 1.457 0 1 1-2.914 0 1.457 1.457 0 0 1 2.914 0z"/>
  <path fill="#2D2D2E" d="M22.06 16.214a.6.6 0 1 1-1.202-.002.6.6 0 0 1 1.202.002z"/>
  <path fill="none" d="M53 13.676h193.833v20.649H53z"/>
  <path fill="#86C1D2" d="M64.574 30.065a.981.981 0 0 1-.594.176c-.352 0-.704-.176-.924-.506L55.86 19.394v9.769c0 .594-.484 1.078-1.078 1.078s-1.1-.484-1.1-1.078V15.939a1.13 1.13 0 0 1 .506-1.079 1.084 1.084 0 0 1 1.519.33l7.173 10.649V15.785c0-.616.506-1.1 1.1-1.1.594 0 1.078.484 1.078 1.1v13.202c.066.418-.11.836-.484 1.078zm1.714-5.391a5.525 5.525 0 0 1 5.522-5.522 5.512 5.512 0 0 1 5.523 5.522 5.526 5.526 0 0 1-5.523 5.523c-3.036.001-5.522-2.486-5.522-5.523zm2.178 0a3.357 3.357 0 0 0 3.344 3.344 3.357 3.357 0 0 0 3.345-3.344 3.343 3.343 0 0 0-3.345-3.344 3.343 3.343 0 0 0-3.344 3.344zm16.786-4.422c0 .594-.484 1.1-1.1 1.1a3.343 3.343 0 0 0-3.344 3.344v4.424c0 .594-.484 1.1-1.078 1.1-.616 0-1.1-.506-1.1-1.1v-4.424a5.525 5.525 0 0 1 5.522-5.522c.616 0 1.1.484 1.1 1.078zm8.822 0c0 .594-.484 1.1-1.101 1.1h-1.562v7.768c0 .594-.484 1.1-1.101 1.1-.594 0-1.078-.506-1.078-1.1v-7.768h-1.584c-.594 0-1.078-.506-1.078-1.1a1.08 1.08 0 0 1 1.078-1.078h1.584v-4.401a1.08 1.08 0 0 1 1.078-1.078c.616 0 1.101.484 1.101 1.078v4.401h1.562c.617 0 1.101.484 1.101 1.078zm11.044 3.741v5.104c0 .617-.506 1.102-1.101 1.102a1.085 1.085 0 0 1-1.078-1.102v-5.104c0-1.475-1.21-2.663-2.685-2.663a2.657 2.657 0 0 0-2.662 2.663v5.104a1.09 1.09 0 0 1-1.101 1.102 1.085 1.085 0 0 1-1.078-1.102V14.773a1.08 1.08 0 0 1 1.078-1.078c.616 0 1.101.484 1.101 1.078v5.171a4.798 4.798 0 0 1 2.662-.792c2.685 0 4.864 2.178 4.864 4.841zm12.343.681c0 .594-.484 1.078-1.101 1.078h-7.591c.462 1.32 1.694 2.266 3.169 2.266.506 0 1.408-.043 2.464-.725.506-.33 1.188-.023 1.452.506.264.549-.021 1.121-.528 1.451-1.452.969-2.574.947-3.388.947a5.526 5.526 0 0 1-5.523-5.523 5.512 5.512 0 0 1 5.523-5.522c2.663 0 5.523 1.936 5.523 5.522zm-8.691-1.1h6.359c-.463-1.54-1.871-2.244-3.19-2.244a3.363 3.363 0 0 0-3.169 2.244zm25.5.111a.206.206 0 0 1 .021.11v5.347c0 .615-.506 1.1-1.1 1.1s-1.078-.484-1.078-1.1v-5.545c0-1.232-1.013-2.222-2.244-2.222-1.232 0-2.244.99-2.244 2.222v5.545c0 .615-.484 1.1-1.079 1.1-.594 0-1.1-.484-1.1-1.1v-5.545c0-1.232-.99-2.222-2.223-2.222-1.231 0-2.244.99-2.244 2.222v5.545c0 .615-.484 1.1-1.078 1.1a1.09 1.09 0 0 1-1.101-1.1v-5.545c0-2.42 1.98-4.4 4.423-4.4 1.32 0 2.509.572 3.322 1.518a4.355 4.355 0 0 1 3.323-1.518c2.442 0 4.422 1.98 4.422 4.4.001.043.001.065-.02.088z"/>
  <path fill="#333334" d="M153.343 30.065a.981.981 0 0 1-.594.176c-.352 0-.704-.176-.924-.506l-7.195-10.341v9.769c0 .594-.484 1.078-1.078 1.078s-1.101-.484-1.101-1.078V15.939a1.131 1.131 0 0 1 .507-1.079 1.083 1.083 0 0 1 1.518.33l7.174 10.649V15.785c0-.616.506-1.1 1.1-1.1s1.078.484 1.078 1.1v13.202c.066.418-.111.836-.485 1.078zm1.715-5.391a5.525 5.525 0 0 1 5.522-5.522 5.512 5.512 0 0 1 5.523 5.522 5.527 5.527 0 0 1-5.523 5.523c-3.036.001-5.522-2.486-5.522-5.523zm2.177 0a3.358 3.358 0 0 0 3.345 3.344 3.357 3.357 0 0 0 3.345-3.344 3.343 3.343 0 0 0-3.345-3.344 3.343 3.343 0 0 0-3.345 3.344zm16.326-4.422c0 .594-.484 1.1-1.101 1.1h-1.563v7.768c0 .594-.483 1.1-1.1 1.1-.595 0-1.078-.506-1.078-1.1v-7.768h-1.585c-.594 0-1.078-.506-1.078-1.1a1.08 1.08 0 0 1 1.078-1.078h1.585v-4.401a1.08 1.08 0 0 1 1.078-1.078c.616 0 1.1.484 1.1 1.078v4.401h1.563c.616 0 1.101.484 1.101 1.078zm11 4.422c0 .594-.484 1.078-1.101 1.078h-7.591c.462 1.32 1.694 2.266 3.169 2.266.506 0 1.408-.043 2.464-.725.506-.33 1.188-.023 1.452.506.264.549-.021 1.121-.528 1.451-1.452.969-2.574.947-3.388.947a5.526 5.526 0 0 1-5.523-5.523 5.512 5.512 0 0 1 5.523-5.522c2.662 0 5.523 1.936 5.523 5.522zm-8.692-1.1h6.359c-.463-1.54-1.871-2.244-3.19-2.244a3.364 3.364 0 0 0-3.169 2.244zm12.21 5.589v5.479c0 .596-.484 1.078-1.078 1.078a1.084 1.084 0 0 1-1.101-1.078v-9.878c0-3.036 2.486-5.522 5.523-5.522a5.525 5.525 0 0 1 5.522 5.522 5.512 5.512 0 0 1-5.522 5.523 5.514 5.514 0 0 1-3.344-1.124zm0-4.401v.022c0 1.825 1.496 3.323 3.345 3.323a3.344 3.344 0 0 0 3.344-3.346 3.357 3.357 0 0 0-3.344-3.344 3.344 3.344 0 0 0-3.345 3.345zm21.143 0v4.313c0 .639-.462 1.1-1.1 1.1-.44 0-1.057-.461-1.057-1.1-.946.793-2.002 1.1-3.256 1.1-3.103 0-5.567-2.309-5.567-5.412 0-3.102 2.465-5.566 5.567-5.566s5.413 2.463 5.413 5.565zm-2.157 0c0-1.848-1.408-3.41-3.256-3.41-1.849 0-3.411 1.562-3.411 3.41s1.563 3.256 3.411 3.256 3.256-1.408 3.256-3.256zm12.364-4.532v-5.479a1.08 1.08 0 0 1 1.078-1.078c.616 0 1.101.484 1.101 1.078v9.879c0 3.036-2.486 5.522-5.522 5.522a5.526 5.526 0 0 1-5.523-5.522 5.513 5.513 0 0 1 5.523-5.523c1.253 0 2.419.419 3.343 1.123zm0 4.4v-.022c0-1.826-1.496-3.322-3.344-3.322a3.343 3.343 0 0 0-3.345 3.344 3.358 3.358 0 0 0 3.345 3.345 3.343 3.343 0 0 0 3.344-3.345zm9.944-3.96v3.103h3.059c.594 0 1.078.484 1.078 1.1a1.08 1.08 0 0 1-1.078 1.078h-3.059v3.036c0 .594-.484 1.078-1.1 1.078a1.08 1.08 0 0 1-1.079-1.078v-3.036h-3.08c-.616 0-1.1-.483-1.1-1.078 0-.616.483-1.1 1.1-1.1h3.08V20.67c0-.616.484-1.1 1.079-1.1.616 0 1.1.484 1.1 1.1zm11.924 0v3.103h3.059c.594 0 1.078.484 1.078 1.1a1.08 1.08 0 0 1-1.078 1.078h-3.059v3.036c0 .594-.484 1.078-1.1 1.078a1.08 1.08 0 0 1-1.079-1.078v-3.036h-3.08c-.616 0-1.1-.483-1.1-1.078 0-.616.483-1.1 1.1-1.1h3.08V20.67c0-.616.484-1.1 1.079-1.1.616 0 1.1.484 1.1 1.1z"/>
</svg>
