<svg xmlns="http://www.w3.org/2000/svg" width="273.009" height="48" viewBox="0 0 273.009 48">
  <path opacity=".05" d="M36.063 4.086c5.983 4.148 9.895 11.061 9.895 18.894 0 12.69-10.284 22.978-22.98 22.978-7.832 0-14.745-3.908-18.895-9.893a23.735 23.735 0 0 0 3.861 5.074 23.417 23.417 0 0 0 15.799 6.096c12.975 0 23.491-10.518 23.491-23.488a23.41 23.41 0 0 0-6.096-15.799 23.647 23.647 0 0 0-5.075-3.862zm5.076 3.861A23.398 23.398 0 0 1 47.491 24c0 12.975-10.517 23.49-23.491 23.49a23.398 23.398 0 0 1-16.055-6.352C12.194 45.371 18.038 48 24.51 48 37.483 48 48 37.482 48 24.512c0-6.471-2.63-12.318-6.861-16.565z"/>
  <path opacity=".1" d="M41.14 7.947a23.414 23.414 0 0 1 6.097 15.799c0 12.973-10.517 23.488-23.491 23.488a23.417 23.417 0 0 1-15.799-6.096 23.394 23.394 0 0 0 16.055 6.352c12.974 0 23.49-10.518 23.49-23.49A23.4 23.4 0 0 0 41.14 7.947z"/>
  <path opacity=".2" d="M30.896 1.404c8.799 3.221 15.064 11.66 15.064 21.58 0 12.691-10.285 22.979-22.979 22.979-9.915 0-18.354-6.266-21.571-15.063 4.008 12.339 17.26 19.093 29.598 15.085a23.488 23.488 0 0 0 16.234-22.234A23.488 23.488 0 0 0 30.9 1.41l-.004-.006z"/>
  <path fill="#333334" d="M23.491 0c12.974 0 23.49 10.517 23.49 23.49 0 12.973-10.517 23.49-23.49 23.49C10.517 46.98 0 36.463 0 23.49 0 10.517 10.517 0 23.491 0z"/>
  <path opacity=".1" d="M39.862 6.67a23.407 23.407 0 0 1 6.097 15.799c0 12.973-10.517 23.488-23.49 23.488a23.417 23.417 0 0 1-15.8-6.094c4.268 4.381 10.225 7.117 16.821 7.117 12.974 0 23.49-10.518 23.49-23.49 0-6.599-2.734-12.552-7.118-16.82z"/>
  <path fill-opacity=".1" d="M26.55 11.748h.005c6.79 0 12.256 5.465 12.256 12.255v.005c0 6.785-5.466 12.25-12.256 12.25h-.005a12.225 12.225 0 0 1-12.251-12.25v-.005c0-6.79 5.466-12.255 12.251-12.255"/>
  <path fill-opacity=".1" d="M21.448 11.748c-6.789 0-12.256 5.465-12.256 12.255s5.467 12.255 12.256 12.255c.348 0 .678-.035 1.021-.063-6.304-.523-11.234-5.754-11.234-12.193 0-6.443 4.931-11.673 11.234-12.191-.344-.032-.674-.068-1.021-.068"/>
  <path fill="#86C1D2" d="M25.529 10.727h.004a12.23 12.23 0 0 1 12.256 12.256v.004a12.23 12.23 0 0 1-12.256 12.252h-.004a12.227 12.227 0 0 1-12.252-12.252v-.004a12.228 12.228 0 0 1 12.252-12.256"/>
  <path fill="#88B2CD" d="M20.427 10.727A12.23 12.23 0 0 0 8.171 22.983a12.23 12.23 0 0 0 12.256 12.256c.348 0 .678-.037 1.021-.064-6.303-.525-11.234-5.755-11.234-12.195 0-6.443 4.931-11.672 11.234-12.191-.344-.031-.674-.068-1.021-.068"/>
  <path fill="#ECEEEF" d="M14.391 17.875c-.3.655-.551 1.334-.734 2.043h23.746a12.536 12.536 0 0 0-.734-2.043m-23.332 4.086c-.027.343-.064.674-.064 1.021 0 .347.035.678.064 1.021h24.384c.027-.343.064-.674.064-1.021 0-.348-.036-.679-.064-1.021m-24.066 4.085c.184.71.439 1.388.734 2.042h22.278c.3-.654.555-1.332.734-2.042"/>
  <path fill="none" d="M53 13.7h220.5v20.6H53z"/>
  <path fill="#86C1D2" d="M64.574 30.09a.981.981 0 0 1-.594.176c-.352 0-.704-.176-.924-.506L55.86 19.418v9.769c0 .595-.484 1.078-1.078 1.078s-1.1-.483-1.1-1.078V15.964a1.128 1.128 0 0 1 .506-1.078 1.084 1.084 0 0 1 1.519.33l7.173 10.649V15.81c0-.616.506-1.1 1.1-1.1.594 0 1.078.484 1.078 1.1v13.202c.066.418-.11.836-.484 1.078zm1.714-5.391a5.525 5.525 0 0 1 5.522-5.522 5.512 5.512 0 0 1 5.523 5.522 5.526 5.526 0 0 1-5.523 5.523c-3.036.001-5.522-2.486-5.522-5.523zm2.178 0a3.358 3.358 0 0 0 3.344 3.345 3.358 3.358 0 0 0 3.345-3.345 3.343 3.343 0 0 0-3.345-3.344 3.343 3.343 0 0 0-3.344 3.344zm16.786-4.422c0 .594-.484 1.1-1.1 1.1a3.343 3.343 0 0 0-3.344 3.344v4.424c0 .594-.484 1.1-1.078 1.1-.616 0-1.1-.506-1.1-1.1v-4.424a5.525 5.525 0 0 1 5.522-5.522c.616 0 1.1.484 1.1 1.078zm8.822 0c0 .594-.484 1.1-1.1 1.1h-1.562v7.768c0 .594-.484 1.1-1.101 1.1-.594 0-1.078-.506-1.078-1.1v-7.768h-1.584c-.594 0-1.078-.506-1.078-1.1a1.08 1.08 0 0 1 1.078-1.078h1.584v-4.401a1.08 1.08 0 0 1 1.078-1.078c.616 0 1.101.484 1.101 1.078v4.401h1.562c.616 0 1.1.484 1.1 1.078zm11.044 3.741v5.104c0 .616-.506 1.101-1.101 1.101a1.085 1.085 0 0 1-1.078-1.101v-5.104c0-1.475-1.21-2.663-2.684-2.663s-2.663 1.188-2.663 2.663v5.104a1.09 1.09 0 1 1-2.178 0V14.798a1.08 1.08 0 0 1 1.078-1.078c.616 0 1.1.484 1.1 1.078v5.171a4.796 4.796 0 0 1 2.663-.792c2.684 0 4.863 2.178 4.863 4.841zm12.342.681c0 .594-.484 1.078-1.101 1.078h-7.591c.462 1.32 1.694 2.267 3.169 2.267.506 0 1.408-.044 2.464-.726.506-.33 1.188-.022 1.452.506.264.55-.021 1.121-.528 1.451-1.452.969-2.574.947-3.388.947a5.526 5.526 0 0 1-5.523-5.523 5.512 5.512 0 0 1 5.523-5.522c2.663 0 5.523 1.936 5.523 5.522zm-8.691-1.1h6.359c-.463-1.54-1.871-2.244-3.19-2.244a3.363 3.363 0 0 0-3.169 2.244zm25.5.11a.206.206 0 0 1 .021.11v5.347c0 .616-.506 1.1-1.1 1.1s-1.078-.483-1.078-1.1v-5.545c0-1.232-1.013-2.222-2.244-2.222-1.232 0-2.245.99-2.245 2.222v5.545c0 .616-.483 1.1-1.078 1.1-.594 0-1.1-.483-1.1-1.1v-5.545c0-1.232-.99-2.222-2.223-2.222s-2.244.99-2.244 2.222v5.545c0 .616-.484 1.1-1.078 1.1a1.09 1.09 0 0 1-1.101-1.1v-5.545c0-2.42 1.98-4.4 4.423-4.4 1.32 0 2.509.572 3.322 1.518a4.355 4.355 0 0 1 3.323-1.518c2.442 0 4.422 1.98 4.422 4.4.001.044.001.066-.02.088z"/>
  <path fill="#333334" d="M152.374 29.1c0 .617-.506 1.101-1.101 1.101h-7.679c-.616 0-1.1-.483-1.1-1.101V15.942c0-.616.483-1.1 1.1-1.1h7.679c.595 0 1.101.484 1.101 1.1 0 .616-.506 1.101-1.101 1.101h-6.578v4.422h5.017c.594 0 1.1.484 1.1 1.1 0 .616-.506 1.1-1.1 1.1h-5.017V28h6.578c.595 0 1.101.484 1.101 1.1zm.373-4.379c0-3.058 2.464-5.522 5.501-5.522a5.56 5.56 0 0 1 4.796 2.75c.309.528.11 1.188-.396 1.496a1.125 1.125 0 0 1-1.496-.396 3.337 3.337 0 0 0-2.904-1.672 3.358 3.358 0 0 0-3.345 3.344c0 1.827 1.519 3.346 3.345 3.346a3.32 3.32 0 0 0 2.816-1.541c.33-.506 1.012-.638 1.518-.33.506.33.639 1.012.309 1.519a5.484 5.484 0 0 1-4.643 2.53c-3.037-.001-5.501-2.487-5.501-5.524zm11.791 4.424V14.82c0-.594.484-1.078 1.101-1.078a1.08 1.08 0 0 1 1.078 1.078v14.325a1.09 1.09 0 0 1-2.179 0zm3.872-12.455a1.125 1.125 0 0 1-.33-.771c0-.286.133-.572.33-.77.198-.198.484-.33.771-.33s.572.132.771.33c.197.198.308.484.308.77 0 .286-.11.572-.308.771-.198.198-.484.308-.771.308s-.573-.11-.771-.308zm-.33 12.455v-8.868c0-.594.484-1.078 1.101-1.078a1.08 1.08 0 0 1 1.078 1.078v8.868a1.09 1.09 0 0 1-2.179 0zm5.698.043v5.479a1.08 1.08 0 0 1-1.078 1.078 1.086 1.086 0 0 1-1.101-1.078v-9.879c0-3.036 2.486-5.522 5.523-5.522a5.525 5.525 0 0 1 5.522 5.522 5.512 5.512 0 0 1-5.522 5.523 5.506 5.506 0 0 1-3.344-1.123zm0-4.401v.022c0 1.826 1.496 3.322 3.345 3.322a3.343 3.343 0 0 0 3.344-3.345 3.357 3.357 0 0 0-3.344-3.344 3.344 3.344 0 0 0-3.345 3.345zm17.733 2.156c0 .639-.462 3.301-3.675 3.301-1.54 0-3.345-.682-3.938-2.223-.044-.088-.044-.197-.044-.308 0-.55.506-1.078 1.122-1.078.308 0 .638.153.836.418.506.704 1.034.99 1.98 1.034 1.408 0 1.519-.969 1.54-1.145 0-.748-.77-1.056-1.826-1.166-1.342-.154-3.652-.88-3.652-3.3 0-2.112 1.782-3.367 3.719-3.367.726 0 1.452.176 2.112.506.22.11 1.826.836 1.826 2.178-.044.55-.528 1.056-1.122 1.056-.528 0-.748-.352-1.013-.748-.308-.616-1.231-.814-1.848-.814-.814 0-1.519.462-1.519 1.21 0 1.585 2.376.55 4.202 1.958.794.641 1.3 1.586 1.3 2.488zm12.21-2.244c0 .594-.484 1.078-1.101 1.078h-7.591c.462 1.32 1.694 2.267 3.169 2.267.506 0 1.408-.044 2.464-.726.506-.33 1.188-.022 1.452.506.264.55-.021 1.121-.528 1.451-1.452.969-2.574.947-3.388.947a5.526 5.526 0 0 1-5.523-5.523 5.512 5.512 0 0 1 5.523-5.522c2.662 0 5.523 1.936 5.523 5.522zm-8.692-1.1h6.359c-.463-1.54-1.871-2.244-3.19-2.244a3.365 3.365 0 0 0-3.169 2.244zm26.578 2.2c0 .595-.309 1.98-1.364 3.016-.595.594-1.717 1.32-3.477 1.32-.044 0-.088 0-.132-.022-1.431-.022-2.641-.396-3.609-1.078a5.008 5.008 0 0 1-1.43-1.585 1.166 1.166 0 0 1-.176-.594c0-.615.506-1.1 1.1-1.1.44 0 .836.264.99.682.088.133.33.506.814.858.616.418 1.408.638 2.354.66 2.618.044 2.75-2.135 2.75-2.157 0-.506-.353-1.121-.858-1.518-.572-.462-1.364-.55-2.244-.66-1.21-.154-2.574-.308-3.696-1.452-1.057-1.1-1.452-2.596-.99-4.07a4.443 4.443 0 0 1 3.41-3.059c.396-.11.836-.132 1.32-.132 1.519.022 2.795.44 3.784 1.232a4.327 4.327 0 0 1 1.32 1.606.965.965 0 0 1 .133.506 1.08 1.08 0 0 1-1.078 1.078c-.44 0-.837-.242-1.013-.66h-.021c0-.022-.154-.396-.639-.792-.439-.352-1.254-.77-2.53-.792-.308-.022-.594 0-.836.066-.836.176-1.54.792-1.782 1.606-.132.396-.22 1.167.484 1.893.55.55 1.254.682 2.397.814 1.057.132 2.267.264 3.323 1.1 1.036.814 1.696 2.09 1.696 3.234zm10.406-5.456V31.19c0 2.486-2.046 4.532-4.555 4.532a4.53 4.53 0 0 1-4.07-2.552 1.08 1.08 0 0 1 .506-1.452 1.068 1.068 0 0 1 1.43.506 2.396 2.396 0 0 0 2.135 1.32 2.362 2.362 0 0 0 2.376-2.354v-1.585a4.37 4.37 0 0 1-2.266.617 4.428 4.428 0 0 1-4.423-4.379v-5.501a1.08 1.08 0 0 1 2.156 0v5.456a2.278 2.278 0 0 0 2.267 2.268 2.264 2.264 0 0 0 2.266-2.268v-5.456a1.08 1.08 0 0 1 1.078-1.078c.615.001 1.1.485 1.1 1.079zm12.341 4.356v4.423a1.09 1.09 0 0 1-1.1 1.101 1.085 1.085 0 0 1-1.078-1.101v-4.423a3.343 3.343 0 0 0-3.345-3.344 3.343 3.343 0 0 0-3.345 3.344v4.423a1.09 1.09 0 0 1-1.1 1.101 1.085 1.085 0 0 1-1.078-1.101v-4.423c0-3.058 2.486-5.522 5.522-5.522s5.524 2.464 5.524 5.522zm7.414-4.422c0 .594-.484 1.1-1.101 1.1h-1.563v7.768c0 .594-.483 1.1-1.1 1.1-.595 0-1.078-.506-1.078-1.1v-7.768h-1.585c-.594 0-1.078-.506-1.078-1.1a1.08 1.08 0 0 1 1.078-1.078h1.585v-4.401a1.08 1.08 0 0 1 1.078-1.078c.616 0 1.1.484 1.1 1.078v4.401h1.563c.616 0 1.101.484 1.101 1.078zm10.868 4.51V29.1c0 .639-.462 1.101-1.1 1.101-.44 0-1.057-.462-1.057-1.101-.946.793-2.002 1.101-3.256 1.101-3.103 0-5.567-2.311-5.567-5.413 0-3.102 2.465-5.566 5.567-5.566s5.413 2.463 5.413 5.565zm-2.157 0c0-1.848-1.408-3.41-3.256-3.41-1.849 0-3.411 1.562-3.411 3.41 0 1.849 1.563 3.257 3.411 3.257s3.256-1.408 3.256-3.257zm12.298 3.675a1.064 1.064 0 0 1-.198 1.519 1.059 1.059 0 0 1-.66.242c-.33 0-.638-.154-.857-.418l-2.575-3.323-2.574 3.323c-.22.264-.527.418-.857.418-.242 0-.463-.088-.66-.242a1.064 1.064 0 0 1-.198-1.519l2.904-3.763-2.904-3.762a1.092 1.092 0 0 1 .198-1.541 1.068 1.068 0 0 1 1.518.198l2.574 3.322 2.575-3.322a1.068 1.068 0 0 1 1.518-.198c.484.374.572 1.056.198 1.541l-2.904 3.762 2.902 3.763z"/>
</svg>
