<svg xmlns="http://www.w3.org/2000/svg" width="211.762" height="48" viewBox="0 0 211.762 48">
  <path opacity=".05" d="M36.063 4.084c5.983 4.148 9.895 11.063 9.895 18.895 0 12.691-10.284 22.978-22.98 22.978-7.833 0-14.746-3.91-18.895-9.895a23.768 23.768 0 0 0 3.862 5.076 23.422 23.422 0 0 0 15.799 6.096c12.974 0 23.491-10.518 23.491-23.49 0-6.08-2.304-11.626-6.096-15.799a23.804 23.804 0 0 0-5.076-3.861zm5.076 3.861C45.074 12.146 47.49 17.788 47.49 24c0 12.972-10.517 23.488-23.491 23.488a23.403 23.403 0 0 1-16.054-6.35C12.194 45.369 18.039 48 24.51 48 37.483 48 48 37.482 48 24.51c0-6.469-2.63-12.317-6.861-16.565z"/>
  <path opacity=".1" d="M41.14 7.945a23.416 23.416 0 0 1 6.097 15.799c0 12.972-10.517 23.49-23.491 23.49a23.42 23.42 0 0 1-15.8-6.096 23.401 23.401 0 0 0 16.055 6.35c12.974 0 23.49-10.518 23.49-23.488A23.4 23.4 0 0 0 41.14 7.945z"/>
  <path opacity=".2" d="M30.896 1.403c8.799 3.222 15.064 11.66 15.064 21.58 0 12.69-10.285 22.979-22.979 22.979-9.915 0-18.355-6.266-21.571-15.064C5.417 43.236 18.668 49.99 31.007 45.982A23.485 23.485 0 0 0 47.241 23.75 23.487 23.487 0 0 0 30.9 1.408l-.004-.005z"/>
  <path fill="#333334" d="M23.491 0c12.974 0 23.491 10.516 23.491 23.488 0 12.974-10.517 23.49-23.491 23.49S0 36.462 0 23.488C0 10.516 10.517 0 23.491 0z"/>
  <path opacity=".1" d="M39.862 6.67a23.402 23.402 0 0 1 6.097 15.797c0 12.974-10.517 23.49-23.49 23.49a23.42 23.42 0 0 1-15.8-6.096c4.268 4.381 10.224 7.117 16.821 7.117 12.974 0 23.49-10.518 23.49-23.49 0-6.599-2.734-12.551-7.118-16.818z"/>
  <path opacity=".1" d="M19.759 12.255c-.303-.008-.588.019-.778.083-.93.323-1.513 1.018-1.836 2.177-.278 1.01-.271 2.828.021 4.409.051.275.103.525.116.565.016.058-.083.092-.523.193-2.148.496-3.715 1.237-4.658 2.198-.423.428-.658.801-.793 1.273-.097.328-.097.979 0 1.301.263.891 1.005 1.724 2.178 2.462.814.51 1.057.566 1.321.301.124-.125.151-.186.151-.336 0-.289-.088-.408-.471-.629-2.401-1.37-2.824-2.743-1.22-3.962.814-.618 1.952-1.107 3.484-1.486.671-.165.822-.188.822-.098 0 .12.495 1.721.75 2.411l.263.722-.347.681c-1.389 2.713-2.279 5.479-2.386 7.502-.088 1.559.19 2.674.87 3.365.742.752 1.788.912 3.132.477.507-.166 1.513-.684 2.099-1.088.423-.285.517-.369.573-.52.057-.15.057-.199 0-.355-.084-.236-.259-.367-.498-.367-.155 0-.262.051-.662.324-.906.623-1.755 1.01-2.461 1.133-.977.168-1.604-.268-1.892-1.301-.124-.449-.117-1.887.021-2.629.207-1.184.57-2.412 1.088-3.703.308-.766.894-2.052.974-2.135.04-.046.092.026.223.335.671 1.525 1.696 3.388 2.698 4.894 2.39 3.592 5.008 5.928 7.023 6.264l-.022.004c.887.145 1.635-.076 2.213-.662.471-.484.781-1.168.958-2.115.107-.594.107-2.258 0-3.064-.327-2.42-1.199-5.189-2.503-7.953-.204-.432-.317-.538-.58-.538a.519.519 0 0 0-.534.517c0 .102.1.375.268.734 1.607 3.468 2.472 6.824 2.384 9.253-.055 1.445-.411 2.316-1.086 2.652-.354.176-.804.17-1.395-.023-2.71-.928-6.381-5.572-8.746-11.064l-.235-.549.344-.592a44.52 44.52 0 0 1 1.814-2.799l.303-.41h.799c4.85 0 9.649 1.11 12.194 2.811.519.347 1.145.98 1.333 1.352.136.259.147.328.147.671 0 .336-.012.417-.123.622-.312.605-1.133 1.234-2.191 1.683-.489.209-.622.348-.622.633 0 .242.156.445.393.518.151.043.202.035.475-.072 1.707-.684 2.881-1.744 3.119-2.818.068-.29.064-.836-.004-1.119-.127-.555-.584-1.265-1.106-1.742-2.331-2.115-7.274-3.48-13.14-3.622l-.418-.013.49-.556c.263-.312.732-.828 1.055-1.159 1.667-1.717 3.217-2.839 4.57-3.307.432-.154.519-.172.966-.172.416 0 .518.012.696.105.244.117.519.404.658.675.275.554.368 1.524.235 2.557a10.64 10.64 0 0 0-.079.908c0 .239.008.276.144.394a.41.41 0 0 0 .331.132c.232 0 .447-.124.511-.294.191-.5.291-2.273.168-3.021-.193-1.147-.679-1.923-1.453-2.298-1.368-.67-3.355-.015-5.675 1.866-1.212.986-2.812 2.658-3.912 4.086l-.108.127-.65.039c-.546.031-1.436.119-2.469.244l-.224.027-.098-.553c-.188-1.102-.202-1.267-.202-2.32 0-.926.013-1.104.101-1.475.215-.936.642-1.518 1.205-1.639.774-.166 1.735.226 3.084 1.239.431.327.956.048.892-.469-.027-.226-.233-.42-.919-.884-.574-.393-1.22-.715-1.747-.872a3.571 3.571 0 0 0-.881-.132l-.01-.004zm1.032 7.948c0 .021-.183.308-.411.646-.228.335-.551.828-.718 1.107a8.218 8.218 0 0 1-.355.553c-.044.047-.108-.081-.303-.71-.279-.868-.399-1.336-.363-1.377.059-.061 2.15-.279 2.15-.219zm4.234 3.283a1.532 1.532 0 1 0 0 3.065 1.532 1.532 0 0 0 0-3.065z"/>
  <path fill="#86C1D2" d="M18.738 11.233c-.303-.009-.588.02-.778.084-.929.322-1.513 1.017-1.836 2.177-.278 1.01-.271 2.827.021 4.409.051.274.103.524.116.565.015.057-.084.091-.523.192-2.148.496-3.715 1.237-4.658 2.198-.423.428-.658.801-.793 1.274-.096.327-.096.978 0 1.3.264.89 1.005 1.725 2.179 2.462.814.51 1.057.566 1.32.301.124-.125.151-.186.151-.336 0-.29-.088-.408-.471-.629-2.402-1.368-2.825-2.741-1.22-3.962.814-.618 1.953-1.107 3.484-1.486.671-.165.822-.187.822-.098 0 .121.495 1.721.75 2.412l.263.721-.347.681c-1.388 2.713-2.279 5.479-2.386 7.502-.088 1.559.19 2.674.87 3.365.742.752 1.788.912 3.132.477.507-.166 1.513-.684 2.099-1.086.423-.287.517-.371.573-.521.057-.15.057-.199 0-.355-.083-.236-.259-.367-.498-.367-.156 0-.263.051-.663.324-.905.623-1.755 1.012-2.46 1.133-.978.168-1.604-.268-1.892-1.301-.124-.449-.116-1.887.021-2.629.207-1.184.57-2.41 1.089-3.703.307-.766.894-2.052.973-2.134.04-.047.092.026.224.334.671 1.525 1.695 3.388 2.698 4.894 2.39 3.592 5.008 5.928 7.023 6.264l-.021.004c.886.145 1.634-.076 2.212-.662.472-.484.781-1.168.958-2.115.107-.594.107-2.258 0-3.064-.326-2.418-1.198-5.189-2.503-7.953-.204-.432-.317-.538-.58-.538a.52.52 0 0 0-.534.517c0 .102.1.374.268.734 1.607 3.468 2.472 6.824 2.384 9.253-.054 1.445-.411 2.318-1.086 2.652-.354.178-.804.172-1.394-.023-2.711-.928-6.382-5.57-8.747-11.064l-.235-.549.344-.592a45.271 45.271 0 0 1 1.814-2.799l.303-.41H22c4.849 0 9.649 1.11 12.194 2.811.52.348 1.145.981 1.333 1.352.136.26.147.328.147.671 0 .336-.012.417-.122.622-.313.605-1.134 1.234-2.191 1.683-.49.209-.623.348-.623.633a.54.54 0 0 0 .393.518c.151.045.202.037.475-.07 1.707-.686 2.881-1.746 3.119-2.82.068-.29.064-.836-.003-1.119-.128-.555-.585-1.264-1.107-1.741-2.331-2.116-7.274-3.48-13.14-3.622l-.418-.013.49-.557c.264-.312.733-.829 1.055-1.159 1.667-1.716 3.217-2.84 4.57-3.307.432-.154.519-.172.966-.172.416 0 .518.012.697.105.244.117.518.404.657.675.275.554.368 1.524.236 2.558-.044.355-.08.766-.08.908 0 .238.008.275.144.393a.407.407 0 0 0 .331.132c.232 0 .447-.124.511-.294.191-.5.291-2.273.168-3.021-.192-1.147-.679-1.922-1.453-2.297-1.368-.671-3.355-.016-5.675 1.866-1.212.985-2.811 2.657-3.911 4.085l-.108.128-.65.038c-.546.031-1.436.12-2.469.244l-.224.028-.098-.553c-.188-1.102-.202-1.268-.202-2.321 0-.926.013-1.104.101-1.474.215-.937.642-1.519 1.205-1.64.774-.165 1.736.227 3.085 1.239.431.327.956.048.891-.469-.027-.226-.233-.42-.919-.884-.575-.393-1.22-.715-1.748-.872a3.557 3.557 0 0 0-.881-.132l-.008-.005zm1.032 7.949c0 .021-.183.308-.411.646-.228.336-.55.828-.718 1.107a8.218 8.218 0 0 1-.355.553c-.043.048-.108-.081-.303-.71-.279-.868-.399-1.336-.363-1.376.059-.062 2.15-.281 2.15-.22zm4.234 3.283a1.532 1.532 0 1 0 0 3.065 1.532 1.532 0 0 0 0-3.065z"/>
  <path fill="none" d="M52.5 15.089h159.261v17.823H52.5z"/>
  <path fill="#86C1D2" d="M64.074 31.75a.995.995 0 0 1-.594.176c-.352 0-.704-.176-.924-.506l-7.195-10.342v9.77c0 .594-.484 1.078-1.078 1.078s-1.1-.484-1.1-1.078V17.623a1.13 1.13 0 0 1 .506-1.079 1.084 1.084 0 0 1 1.519.33l7.173 10.65V17.469c0-.616.506-1.1 1.1-1.1.594 0 1.078.484 1.078 1.1v13.203c.065.417-.111.835-.485 1.078zm1.715-5.392a5.525 5.525 0 0 1 5.522-5.522 5.512 5.512 0 0 1 5.523 5.522 5.526 5.526 0 0 1-5.523 5.522c-3.036 0-5.522-2.486-5.522-5.522zm2.178 0a3.357 3.357 0 0 0 3.344 3.345 3.357 3.357 0 0 0 3.345-3.345 3.343 3.343 0 0 0-3.345-3.344 3.343 3.343 0 0 0-3.344 3.344zm16.785-4.422c0 .594-.484 1.1-1.1 1.1a3.343 3.343 0 0 0-3.344 3.345v4.422c0 .595-.484 1.101-1.078 1.101-.616 0-1.1-.506-1.1-1.101V26.38a5.526 5.526 0 0 1 5.522-5.523c.617 0 1.1.484 1.1 1.079zm8.822 0c0 .594-.484 1.1-1.1 1.1h-1.562v7.767c0 .595-.484 1.101-1.101 1.101-.594 0-1.078-.506-1.078-1.101v-7.767h-1.584c-.594 0-1.078-.506-1.078-1.1a1.08 1.08 0 0 1 1.078-1.078h1.584v-4.401a1.08 1.08 0 0 1 1.078-1.078c.616 0 1.101.484 1.101 1.078v4.401h1.562c.616-.001 1.1.483 1.1 1.078zm11.045 3.739v5.105c0 .616-.507 1.1-1.102 1.1a1.084 1.084 0 0 1-1.078-1.1v-5.105c0-1.474-1.209-2.662-2.684-2.662a2.658 2.658 0 0 0-2.663 2.662v5.105c0 .616-.484 1.1-1.1 1.1a1.084 1.084 0 0 1-1.078-1.1V16.457a1.08 1.08 0 0 1 1.078-1.078c.616 0 1.1.484 1.1 1.078v5.171a4.796 4.796 0 0 1 2.663-.792c2.684-.001 4.864 2.178 4.864 4.839zm12.342.683c0 .595-.484 1.078-1.102 1.078h-7.59c.461 1.32 1.693 2.267 3.168 2.267.506 0 1.408-.044 2.465-.727.506-.33 1.188-.021 1.451.506.264.551-.021 1.123-.527 1.453-1.453.968-2.574.945-3.389.945a5.526 5.526 0 0 1-5.523-5.522 5.512 5.512 0 0 1 5.523-5.522c2.663-.001 5.524 1.935 5.524 5.522zm-8.691-1.1h6.359c-.463-1.54-1.871-2.244-3.191-2.244a3.36 3.36 0 0 0-3.168 2.244zm25.5.11a.206.206 0 0 1 .021.11v5.347c0 .616-.506 1.101-1.1 1.101s-1.078-.484-1.078-1.101V25.28c0-1.232-1.014-2.222-2.244-2.222-1.232 0-2.244.99-2.244 2.222v5.545c0 .616-.484 1.101-1.08 1.101-.594 0-1.1-.484-1.1-1.101V25.28c0-1.232-.99-2.222-2.223-2.222-1.23 0-2.244.99-2.244 2.222v5.545a1.09 1.09 0 0 1-2.178 0V25.28c0-2.42 1.98-4.4 4.422-4.4 1.32 0 2.51.572 3.322 1.518a4.357 4.357 0 0 1 3.324-1.518c2.441 0 4.422 1.98 4.422 4.4.001.044.001.066-.02.088z"/>
  <path fill="#333334" d="M152.424 31.859a1.295 1.295 0 0 1-1.451-.792l-.793-2.245h-5.367l-.926 2.245c-.109.506-.527.792-1.055.792h-.242c-.66-.286-.924-.924-.793-1.452l4.709-13.114a1.128 1.128 0 0 1 1.078-.792c.527 0 .902.374 1.033.792l4.467 13.114c.242.528 0 1.166-.66 1.452zM149.52 26.6l-1.936-5.633-1.98 5.633h3.916zm10.318-4.664c0 .594-.484 1.1-1.1 1.1h-1.563v7.767c0 .595-.484 1.101-1.1 1.101-.596 0-1.078-.506-1.078-1.101v-7.767h-1.586c-.594 0-1.078-.506-1.078-1.1a1.08 1.08 0 0 1 1.078-1.078h1.586v-4.401c0-.594.482-1.078 1.078-1.078.615 0 1.1.484 1.1 1.078v4.401h1.563c.616-.001 1.1.483 1.1 1.078zm-.045 4.422a5.526 5.526 0 0 1 5.523-5.522 5.512 5.512 0 0 1 5.523 5.522 5.526 5.526 0 0 1-5.523 5.522c-3.037 0-5.523-2.486-5.523-5.522zm2.178 0c0 1.827 1.498 3.345 3.346 3.345s3.344-1.518 3.344-3.345c0-1.848-1.496-3.344-3.344-3.344s-3.346 1.496-3.346 3.344zm25.588-.99a.206.206 0 0 1 .021.11v5.347c0 .616-.506 1.101-1.1 1.101s-1.078-.484-1.078-1.101V25.28c0-1.232-1.012-2.222-2.244-2.222s-2.244.99-2.244 2.222v5.545c0 .616-.484 1.101-1.078 1.101s-1.1-.484-1.1-1.101V25.28c0-1.232-.99-2.222-2.223-2.222s-2.244.99-2.244 2.222v5.545c0 .616-.484 1.101-1.078 1.101a1.09 1.09 0 0 1-1.102-1.101V25.28c0-2.42 1.98-4.4 4.424-4.4 1.32 0 2.508.572 3.322 1.518a4.353 4.353 0 0 1 3.322-1.518c2.443 0 4.422 1.98 4.422 4.4.001.044.001.066-.02.088zm8.072.99v-8.625c0-.616.484-1.1 1.078-1.1.617 0 1.1.484 1.1 1.1v8.625a3.344 3.344 0 1 0 6.69 0v-8.625c0-.616.484-1.1 1.078-1.1a1.09 1.09 0 0 1 1.102 1.1v8.625a5.526 5.526 0 0 1-5.523 5.522 5.525 5.525 0 0 1-5.525-5.522zm12.363 4.444v-13.29c0-.594.484-1.078 1.1-1.078a1.08 1.08 0 0 1 1.078 1.078v13.29a1.09 1.09 0 0 1-2.178 0z"/>
</svg>
